<svg width="24" height="24" viewBox="0 0 24 24" fill="none" xmlns="http://www.w3.org/2000/svg">
<path fill-rule="evenodd" clip-rule="evenodd" d="M9.559 21.4562C5.887 21.4562 2.75 20.9012 2.75 18.6772C2.75 16.4532 5.867 14.4492 9.559 14.4492C13.231 14.4492 16.367 16.4342 16.367 18.6572C16.367 20.8802 13.251 21.4562 9.559 21.4562Z" stroke="#2D3436" stroke-width="1.5" stroke-linecap="round" stroke-linejoin="round"/>
<path fill-rule="evenodd" clip-rule="evenodd" d="M9.55937 11.2775C11.9694 11.2775 13.9234 9.3235 13.9234 6.9135C13.9234 4.5035 11.9694 2.5495 9.55937 2.5495C7.14937 2.5495 5.19534 4.5035 5.19534 6.9135C5.18637 9.3155 7.12737 11.2695 9.52837 11.2775H9.55937Z" stroke="#2D3436" stroke-width="1.5" stroke-linecap="round" stroke-linejoin="round"/>
<path d="M16.8022 10.0788C18.2052 9.7038 19.2392 8.4248 19.2392 6.9028C19.2402 5.3148 18.1132 3.9888 16.6152 3.6818" stroke="#2D3436" stroke-width="1.5" stroke-linecap="round" stroke-linejoin="round"/>
<path d="M17.4609 13.6535C19.4489 13.6535 21.1469 15.0015 21.1469 16.2045C21.1469 16.9135 20.5619 17.6415 19.6719 17.8505" stroke="#2D3436" stroke-width="1.5" stroke-linecap="round" stroke-linejoin="round"/>
</svg>
