<svg width="24" height="24" viewBox="0 0 24 24" fill="none" xmlns="http://www.w3.org/2000/svg">
<path fill-rule="evenodd" clip-rule="evenodd" d="M21.001 6.6738C21.001 8.7024 19.3558 10.3476 17.3272 10.3476C15.2986 10.3476 13.6543 8.7024 13.6543 6.6738C13.6543 4.6452 15.2986 3 17.3272 3C19.3558 3 21.001 4.6452 21.001 6.6738Z" stroke="#2D3436" stroke-width="1.5" stroke-linecap="round" stroke-linejoin="round"/>
<path fill-rule="evenodd" clip-rule="evenodd" d="M10.3467 6.6738C10.3467 8.7024 8.7024 10.3476 6.6729 10.3476C4.6452 10.3476 3 8.7024 3 6.6738C3 4.6452 4.6452 3 6.6729 3C8.7024 3 10.3467 4.6452 10.3467 6.6738Z" stroke="#2D3436" stroke-width="1.5" stroke-linecap="round" stroke-linejoin="round"/>
<path fill-rule="evenodd" clip-rule="evenodd" d="M21.001 17.2619C21.001 19.2905 19.3558 20.9348 17.3272 20.9348C15.2986 20.9348 13.6543 19.2905 13.6543 17.2619C13.6543 15.2333 15.2986 13.5881 17.3272 13.5881C19.3558 13.5881 21.001 15.2333 21.001 17.2619Z" stroke="#2D3436" stroke-width="1.5" stroke-linecap="round" stroke-linejoin="round"/>
<path fill-rule="evenodd" clip-rule="evenodd" d="M10.3467 17.2619C10.3467 19.2905 8.7024 20.9348 6.6729 20.9348C4.6452 20.9348 3 19.2905 3 17.2619C3 15.2333 4.6452 13.5881 6.6729 13.5881C8.7024 13.5881 10.3467 15.2333 10.3467 17.2619Z" stroke="#2D3436" stroke-width="1.5" stroke-linecap="round" stroke-linejoin="round"/>
</svg>
