<svg width="24" height="24" viewBox="0 0 24 24" fill="none" xmlns="http://www.w3.org/2000/svg">
<path d="M6.07031 16.459C6.07031 16.459 6.88231 14.822 8.06431 14.822C9.24631 14.822 9.85031 16.197 11.1603 16.197C12.4693 16.197 13.9383 12.749 15.4223 12.749C16.9043 12.749 17.9703 15.14 17.9703 15.14" stroke="#2D3436" stroke-width="1.5" stroke-linecap="round" stroke-linejoin="round"/>
<path fill-rule="evenodd" clip-rule="evenodd" d="M10.1384 9.1049C10.1384 9.9649 9.44144 10.6629 8.58044 10.6629C7.72044 10.6629 7.02344 9.9649 7.02344 9.1049C7.02344 8.2449 7.72044 7.5469 8.58044 7.5469C9.44144 7.5479 10.1384 8.2449 10.1384 9.1049Z" stroke="#2D3436" stroke-width="1.5" stroke-linecap="round" stroke-linejoin="round"/>
<path fill-rule="evenodd" clip-rule="evenodd" d="M2.75 12.0001C2.75 18.9371 5.063 21.2501 12 21.2501C18.937 21.2501 21.25 18.9371 21.25 12.0001C21.25 5.0631 18.937 2.7501 12 2.7501C5.063 2.7501 2.75 5.0631 2.75 12.0001Z" stroke="#2D3436" stroke-width="1.5" stroke-linecap="round" stroke-linejoin="round"/>
</svg>
