<svg width="24" height="24" viewBox="0 0 24 24" fill="none" xmlns="http://www.w3.org/2000/svg">
<path d="M18.6543 8.63458C19.9076 10.9057 19.9076 13.6772 18.6543 15.9404" stroke="#2D3436" stroke-width="1.5" stroke-linecap="round" stroke-linejoin="round"/>
<path fill-rule="evenodd" clip-rule="evenodd" d="M4.66637 12.2873C4.66282 13.5059 4.66637 14.9353 5.6726 15.7895C6.67882 16.6446 7.47793 16.2917 8.78015 16.7202C10.0833 17.1495 11.9082 19.7966 13.9242 18.6011C15.0139 17.8268 15.5277 16.3655 15.5277 12.2873C15.5277 8.20906 15.037 6.76373 13.9242 5.9735C11.9082 4.77884 10.0833 7.42595 8.78015 7.85439C7.47793 8.28373 6.67882 7.93084 5.6726 8.78506C4.66637 9.63928 4.66282 11.0686 4.66637 12.2873Z" stroke="#2D3436" stroke-width="1.5" stroke-linecap="round" stroke-linejoin="round"/>
</svg>
