<svg width="24" height="24" viewBox="0 0 24 24" fill="none" xmlns="http://www.w3.org/2000/svg">
<path d="M11.9609 16.5168V13.8888" stroke="#2D3436" stroke-width="1.5" stroke-linecap="round" stroke-linejoin="round"/>
<path d="M21.089 11.4777L21.06 11.4987C18.638 12.9907 15.44 13.8917 11.956 13.8917C8.47203 13.8917 5.28303 12.9907 2.86203 11.4987L2.83203 11.4777" stroke="#2D3436" stroke-width="1.5" stroke-linecap="round" stroke-linejoin="round"/>
<path fill-rule="evenodd" clip-rule="evenodd" d="M2.75 13.3507C2.75 7.19867 5.053 5.14767 11.961 5.14767C18.87 5.14767 21.172 7.19867 21.172 13.3507C21.172 19.5027 18.87 21.5537 11.961 21.5537C5.053 21.5537 2.75 19.5027 2.75 13.3507Z" stroke="#2D3436" stroke-width="1.5" stroke-linecap="round" stroke-linejoin="round"/>
<path d="M15.2242 5.36929V4.73929C15.2242 3.47529 14.3012 2.45029 13.1642 2.45029H10.7592C9.62222 2.45029 8.69922 3.47529 8.69922 4.73929V5.36929" stroke="#2D3436" stroke-width="1.5" stroke-linecap="round" stroke-linejoin="round"/>
</svg>
