<svg width="24" height="24" viewBox="0 0 24 24" fill="none" xmlns="http://www.w3.org/2000/svg">
<path fill-rule="evenodd" clip-rule="evenodd" d="M9.92161 21.8083C6.10761 21.8083 2.84961 21.2313 2.84961 18.9213C2.84961 16.6113 6.08661 14.5103 9.92161 14.5103C13.7356 14.5103 16.9936 16.5913 16.9936 18.9003C16.9936 21.2093 13.7566 21.8083 9.92161 21.8083Z" stroke="#2D3436" stroke-width="1.5" stroke-linecap="round" stroke-linejoin="round"/>
<path fill-rule="evenodd" clip-rule="evenodd" d="M9.92173 11.216C12.4247 11.216 14.4547 9.18599 14.4547 6.68299C14.4547 4.17899 12.4247 2.14999 9.92173 2.14999C7.41873 2.14999 5.3887 4.17899 5.3887 6.68299C5.37973 9.17699 7.39573 11.207 9.88973 11.216H9.92173Z" stroke="#2D3436" stroke-width="1.5" stroke-linecap="round" stroke-linejoin="round"/>
<path d="M19.1309 8.12909V12.1391" stroke="#2D3436" stroke-width="1.5" stroke-linecap="round" stroke-linejoin="round"/>
<path d="M21.1759 10.1339H17.0859" stroke="#2D3436" stroke-width="1.5" stroke-linecap="round" stroke-linejoin="round"/>
</svg>
