<svg width="24" height="24" viewBox="0 0 24 24" fill="none" xmlns="http://www.w3.org/2000/svg">
<path d="M5.69439 6.43043C11.0209 5.09319 17.643 5.17518 19.1735 6.91796C20.704 8.66074 20.6724 14.4882 18.8834 16.0872C17.0954 17.6862 9.33039 17.8382 6.87039 16.0872C4.27139 14.2362 5.77939 8.54219 5.69439 5.09319C5.74539 3.16319 3.65039 2.85019 3.65039 2.85019" stroke="#2D3436" stroke-width="1.5" stroke-linecap="round" stroke-linejoin="round"/>
<path d="M14.1562 10.7198H16.9292" stroke="#2D3436" stroke-width="1.5" stroke-linecap="round" stroke-linejoin="round"/>
<path fill-rule="evenodd" clip-rule="evenodd" d="M7.26375 20.1275C7.56375 20.1275 7.80775 20.3715 7.80775 20.6715C7.80775 20.9725 7.56375 21.2165 7.26375 21.2165C6.96275 21.2165 6.71875 20.9725 6.71875 20.6715C6.71875 20.3715 6.96275 20.1275 7.26375 20.1275Z" fill="#2D3436" stroke="#2D3436" stroke-width="1.5" stroke-linecap="round" stroke-linejoin="round"/>
<path fill-rule="evenodd" clip-rule="evenodd" d="M17.5948 20.1275C17.8958 20.1275 18.1398 20.3715 18.1398 20.6715C18.1398 20.9725 17.8958 21.2165 17.5948 21.2165C17.2948 21.2165 17.0508 20.9725 17.0508 20.6715C17.0508 20.3715 17.2948 20.1275 17.5948 20.1275Z" fill="#2D3436" stroke="#2D3436" stroke-width="1.5" stroke-linecap="round" stroke-linejoin="round"/>
</svg>
