<svg width="24" height="24" viewBox="0 0 24 24" fill="none" xmlns="http://www.w3.org/2000/svg">
<path fill-rule="evenodd" clip-rule="evenodd" d="M15.437 12.4981C15.437 10.7613 14.0286 9.35284 12.2917 9.35284C10.5549 9.35284 9.14648 10.7613 9.14648 12.4981C9.14648 14.235 10.5549 15.6434 12.2917 15.6434C14.0286 15.6434 15.437 14.235 15.437 12.4981Z" stroke="#2D3436" stroke-width="1.5" stroke-linecap="round" stroke-linejoin="round"/>
<path fill-rule="evenodd" clip-rule="evenodd" d="M12.2922 20.2001C20.3375 20.2001 21.2954 17.7896 21.2954 12.5664C21.2954 8.90536 20.8112 6.94642 17.7617 6.10431C17.4817 6.01589 17.1712 5.84747 16.9196 5.57063C16.5133 5.12536 16.2164 3.758 15.2354 3.34431C14.2543 2.93168 10.3143 2.95063 9.34906 3.34431C8.38485 3.73905 8.07117 5.12536 7.66485 5.57063C7.41327 5.84747 7.1038 6.01589 6.82275 6.10431C3.77327 6.94642 3.28906 8.90536 3.28906 12.5664C3.28906 17.7896 4.24696 20.2001 12.2922 20.2001Z" stroke="#2D3436" stroke-width="1.5" stroke-linecap="round" stroke-linejoin="round"/>
<path d="M17.2051 9H17.2141" stroke="#2D3436" stroke-width="1.5" stroke-linecap="round" stroke-linejoin="round"/>
</svg>
