<svg width="24" height="24" viewBox="0 0 24 24" fill="none" xmlns="http://www.w3.org/2000/svg">
<path d="M12 2.75009C5.063 2.75009 2.75 5.06309 2.75 12.0001C2.75 18.9371 5.063 21.2501 12 21.2501C18.937 21.2501 21.25 18.9371 21.25 12.0001" stroke="#2D3436" stroke-width="1.5" stroke-linecap="round" stroke-linejoin="round"/>
<path fill-rule="evenodd" clip-rule="evenodd" d="M19.528 4.30379C18.535 3.42479 17.018 3.51679 16.139 4.50979C16.139 4.50979 11.77 9.44479 10.255 11.1578C8.73804 12.8698 9.85004 15.2348 9.85004 15.2348C9.85004 15.2348 12.354 16.0278 13.848 14.3398C15.343 12.6518 19.734 7.69279 19.734 7.69279C20.613 6.69979 20.52 5.18279 19.528 4.30379Z" stroke="#2D3436" stroke-width="1.5" stroke-linecap="round" stroke-linejoin="round"/>
<path d="M15.0098 5.80078L18.6048 8.98378" stroke="#2D3436" stroke-width="1.5" stroke-linecap="round" stroke-linejoin="round"/>
</svg>
