<svg width="24" height="24" viewBox="0 0 24 24" fill="none" xmlns="http://www.w3.org/2000/svg">
<path d="M11.1424 17.8828H4.66992" stroke="#2D3436" stroke-width="1.5" stroke-linecap="round" stroke-linejoin="round"/>
<path fill-rule="evenodd" clip-rule="evenodd" d="M15.2051 17.8837C15.2051 19.9255 15.886 20.6055 17.9269 20.6055C19.9678 20.6055 20.6487 19.9255 20.6487 17.8837C20.6487 15.8419 19.9678 15.1619 17.9269 15.1619C15.886 15.1619 15.2051 15.8419 15.2051 17.8837Z" stroke="#2D3436" stroke-width="1.5" stroke-linecap="round" stroke-linejoin="round"/>
<path d="M14.1758 7.3942H20.6474" stroke="#2D3436" stroke-width="1.5" stroke-linecap="round" stroke-linejoin="round"/>
<path fill-rule="evenodd" clip-rule="evenodd" d="M10.1144 7.39284C10.1144 5.35195 9.4335 4.67105 7.39261 4.67105C5.35082 4.67105 4.66992 5.35195 4.66992 7.39284C4.66992 9.43463 5.35082 10.1146 7.39261 10.1146C9.4335 10.1146 10.1144 9.43463 10.1144 7.39284Z" stroke="#2D3436" stroke-width="1.5" stroke-linecap="round" stroke-linejoin="round"/>
</svg>
