<svg width="24" height="24" viewBox="0 0 24 24" fill="none" xmlns="http://www.w3.org/2000/svg">
<path d="M6.42 17.7298C4.19 16.2698 2.75 14.0698 2.75 12.1398C2.75 8.85981 6.89 4.83981 12 4.83981C14.09 4.83981 16.03 5.50981 17.59 6.54981" stroke="#2D3436" stroke-width="1.5" stroke-linecap="round" stroke-linejoin="round"/>
<path d="M19.8491 8.6102C20.7401 9.7402 21.2591 10.9902 21.2591 12.1402C21.2591 15.4202 17.1091 19.4402 11.9991 19.4402C11.0891 19.4402 10.2001 19.3102 9.36914 19.0802" stroke="#2D3436" stroke-width="1.5" stroke-linecap="round" stroke-linejoin="round"/>
<path d="M9.76488 14.367C9.16988 13.778 8.83688 12.975 8.83986 12.138C8.83588 10.393 10.2479 8.975 11.9939 8.97199C12.8339 8.97 13.6399 9.303 14.2339 9.897" stroke="#2D3436" stroke-width="1.5" stroke-linecap="round" stroke-linejoin="round"/>
<path d="M15.1093 12.6991C14.8753 13.9911 13.8643 15.0041 12.5723 15.2411" stroke="#2D3436" stroke-width="1.5" stroke-linecap="round" stroke-linejoin="round"/>
<path d="M19.8912 4.24991L4.11719 20.0239" stroke="#2D3436" stroke-width="1.5" stroke-linecap="round" stroke-linejoin="round"/>
</svg>
