<svg width="24" height="24" viewBox="0 0 24 24" fill="none" xmlns="http://www.w3.org/2000/svg">
<path fill-rule="evenodd" clip-rule="evenodd" d="M2.75 12.0001C2.75 18.9371 5.063 21.2501 12 21.2501C18.937 21.2501 21.25 18.9371 21.25 12.0001C21.25 5.06311 18.937 2.75011 12 2.75011C5.063 2.75011 2.75 5.06311 2.75 12.0001Z" stroke="#2D3436" stroke-width="1.5" stroke-linecap="round" stroke-linejoin="round"/>
<path fill-rule="evenodd" clip-rule="evenodd" d="M10.5982 8.78421C10.5982 9.75721 9.81017 10.5452 8.83717 10.5452C7.86517 10.5452 7.07617 9.75721 7.07617 8.78421C7.07617 7.81121 7.86517 7.02321 8.83717 7.02321C9.81017 7.02321 10.5982 7.81121 10.5982 8.78421Z" stroke="#2D3436" stroke-width="1.5" stroke-linecap="round" stroke-linejoin="round"/>
<path d="M21.1208 14.6666C20.2398 13.7606 18.9938 11.9296 16.7048 11.9296C14.4158 11.9296 14.3658 15.9676 12.0298 15.9676C9.6928 15.9676 8.7518 14.5966 7.2288 15.3126C5.7068 16.0276 4.4668 18.8736 4.4668 18.8736" stroke="#2D3436" stroke-width="1.5" stroke-linecap="round" stroke-linejoin="round"/>
</svg>
