<svg width="24" height="24" viewBox="0 0 24 24" fill="none" xmlns="http://www.w3.org/2000/svg">
<path fill-rule="evenodd" clip-rule="evenodd" d="M10.6884 12.0001C10.6884 13.0231 9.85938 13.8521 8.83638 13.8521C7.81338 13.8521 6.98438 13.0231 6.98438 12.0001C6.98438 10.9771 7.81338 10.1481 8.83638 10.1481H8.83938C9.86137 10.1491 10.6884 10.9781 10.6884 12.0001Z" stroke="#2D3436" stroke-width="1.5" stroke-linecap="round" stroke-linejoin="round"/>
<path d="M10.6914 12.0001H17.0094V13.8521" stroke="#2D3436" stroke-width="1.5" stroke-linecap="round" stroke-linejoin="round"/>
<path d="M14.1816 13.8521V12.0001" stroke="#2D3436" stroke-width="1.5" stroke-linecap="round" stroke-linejoin="round"/>
<path fill-rule="evenodd" clip-rule="evenodd" d="M2.75 12.0001C2.75 5.0631 5.063 2.7501 12 2.7501C18.937 2.7501 21.25 5.0631 21.25 12.0001C21.25 18.9371 18.937 21.2501 12 21.2501C5.063 21.2501 2.75 18.9371 2.75 12.0001Z" stroke="#2D3436" stroke-width="1.5" stroke-linecap="round" stroke-linejoin="round"/>
</svg>
