<svg width="24" height="24" viewBox="0 0 24 24" fill="none" xmlns="http://www.w3.org/2000/svg">
<path d="M19.4355 5.77445C21.9292 9.49445 21.9365 14.4035 19.4355 18.1317" stroke="#2D3436" stroke-width="1.5" stroke-linecap="round" stroke-linejoin="round"/>
<path d="M16.9883 8.21718C18.2701 10.5399 18.2701 13.3745 16.9883 15.689" stroke="#2D3436" stroke-width="1.5" stroke-linecap="round" stroke-linejoin="round"/>
<path fill-rule="evenodd" clip-rule="evenodd" d="M2.68188 11.9529C2.67916 13.1993 2.68188 14.6611 3.71097 15.5347C4.74097 16.4093 5.55734 16.0484 6.88916 16.4865C8.22188 16.9256 10.0882 19.6329 12.1501 18.4102C13.2646 17.6184 13.7901 16.1238 13.7901 11.9529C13.7901 7.782 13.2882 6.30382 12.1501 5.49563C10.0882 4.27382 8.22188 6.98109 6.88916 7.41927C5.55734 7.85836 4.74097 7.49745 3.71097 8.37109C2.68188 9.24473 2.67916 10.7065 2.68188 11.9529Z" stroke="#2D3436" stroke-width="1.5" stroke-linecap="round" stroke-linejoin="round"/>
</svg>
