<svg width="305" height="170" viewBox="0 0 305 170" fill="none" xmlns="http://www.w3.org/2000/svg">
<g clip-path="url(#clip0_76_4152)">
<mask id="mask0_76_4152" style="mask-type:alpha" maskUnits="userSpaceOnUse" x="0" y="0" width="305" height="170">
<path d="M5.4501 0H299.55C302.367 0 304.65 2.28335 304.65 5.1V170H0.350098V5.1C0.350098 2.28335 2.63345 0 5.4501 0Z" fill="white"/>
</mask>
<g mask="url(#mask0_76_4152)">
<path fill-rule="evenodd" clip-rule="evenodd" d="M184.016 132.909L176.156 194.547L180.277 194.493L188.136 133.486L184.016 132.909Z" fill="#D2D2D2"/>
<path fill-rule="evenodd" clip-rule="evenodd" d="M187.356 132.909L195.216 194.547L191.095 194.493L183.235 133.486L187.356 132.909Z" fill="#D2D2D2"/>
<path fill-rule="evenodd" clip-rule="evenodd" d="M211.317 132.909L219.177 194.547L215.056 194.493L207.197 133.486L211.317 132.909Z" fill="#D2D2D2"/>
<path fill-rule="evenodd" clip-rule="evenodd" d="M151.65 136.158C151.65 132.602 154.533 129.719 158.089 129.719H182.435C187.296 129.719 191.359 126.022 191.818 121.183L195.646 80.7857C196.104 75.9466 200.168 72.25 205.028 72.25H217.708C222.913 72.25 227.133 76.4696 227.133 81.6748C227.133 81.9175 227.123 82.1602 227.105 82.4022L223.118 133.9C222.738 138.809 218.644 142.598 213.721 142.598H158.089C154.533 142.598 151.65 139.715 151.65 136.158Z" fill="#D2D2D2"/>
<path fill-rule="evenodd" clip-rule="evenodd" d="M217.533 72.25C218.455 72.25 219.346 72.3823 220.187 72.6289C220.453 73.4987 220.596 74.4217 220.596 75.3779C220.596 75.6214 220.586 75.8647 220.567 76.1074L216.585 127.409C216.204 132.316 212.111 136.104 207.188 136.104H151.71L151.651 136.104C151.65 136.062 151.65 136.02 151.65 135.978C151.65 132.431 154.525 129.555 158.073 129.555H182.341C187.201 129.555 191.264 125.86 191.724 121.022L195.548 80.7832C196.007 75.9452 200.07 72.25 204.93 72.25H217.533Z" fill="#B2B0B0"/>
<path fill-rule="evenodd" clip-rule="evenodd" d="M186.795 114.407C180.905 114.669 148.126 121.904 142.171 123.133C136.215 124.362 131.181 131.014 135.722 138.715C140.822 147.361 153.983 171.914 157.178 177.448C158.76 180.188 166.738 178.652 164.864 174.054C161.37 165.482 159.748 143.95 150.841 136.098C150.841 136.098 180.795 141.301 193.735 135.342C203.139 131.01 201.011 113.772 186.795 114.407Z" fill="#42474F"/>
<path fill-rule="evenodd" clip-rule="evenodd" d="M145.711 76.4323C145.711 76.4323 145.778 71.6502 144.101 69.151C142.425 66.6519 142.359 63.9972 141.09 64.0841C139.821 64.171 141.077 70.3413 141.077 70.3413C141.077 70.3413 139.468 69.7277 138.311 68.9514C137.155 68.1752 133.649 64.3485 132.829 65.0266C131.44 66.182 133.678 72.6995 134.897 74.0025C136.119 75.306 142.799 79.592 142.799 79.592L159.161 96.288L162.233 87.8063L145.711 76.4323Z" fill="#FFE0D1"/>
<path fill-rule="evenodd" clip-rule="evenodd" d="M181.904 74.8545C179.164 81.1956 174.148 92.8444 172.08 96.3197C169.488 100.672 165.401 102.59 160.616 99.3604C159.77 98.7889 158.056 97.4113 155.476 95.2277L160.159 84.9429C162.184 86.6107 163.197 87.4446 163.197 87.4446C163.197 87.4446 168.338 74.2922 172.474 66.6731C176.056 60.0813 186.074 65.2145 181.904 74.8545Z" fill="#FFB66F"/>
<path fill-rule="evenodd" clip-rule="evenodd" d="M163.144 87.4511C162.223 90.5671 161.655 92.0349 161.44 91.8545C161.225 91.6741 161.307 89.7991 161.686 86.2295L163.144 87.4511Z" fill="black" fill-opacity="0.159856"/>
<path fill-rule="evenodd" clip-rule="evenodd" d="M161.323 85.5118L157.407 98.6L153.248 95.3421L159.037 83.7393L161.323 85.5118Z" fill="#FFEDC2"/>
<path fill-rule="evenodd" clip-rule="evenodd" d="M186.872 30.6096C186.872 30.6096 188.93 27.2188 192.193 27.4729C195.455 27.7271 199.413 32.6943 199.205 38.1984C199.004 43.7019 200.218 44.5675 202.558 47.7501C208.846 56.3129 199.125 66.3397 199.125 66.3397L186.208 66.3451L185.72 42.3377L186.872 30.6096Z" fill="#42474F"/>
<path fill-rule="evenodd" clip-rule="evenodd" d="M191.995 32.593C200.796 38.5956 195.751 45.5638 194.869 47.1999C193.174 59.1038 196.665 59.7145 201.933 62.3736L200.1 65.6465L192.55 64.2276L186.186 33.195L191.995 32.593Z" fill="black" fill-opacity="0.199355"/>
<path fill-rule="evenodd" clip-rule="evenodd" d="M196.146 61.5676C196.146 61.5676 191.66 60.6678 191.526 54.3873C191.393 48.1067 192.132 45.9629 192.132 45.9629L183.672 45.8105C183.672 45.8105 183.58 52.8101 183.578 55.3418C183.575 61.4977 178.827 62.2117 178.827 62.2117C178.827 62.2117 179.814 67.0813 187.48 67.5114C193.465 67.8478 196.146 61.5676 196.146 61.5676Z" fill="#F9C7B0"/>
<path fill-rule="evenodd" clip-rule="evenodd" d="M191.82 32.3861C192.128 28.7634 186.145 27.8834 185.037 30.6816C185.037 30.6816 184.733 33.1753 186.68 34.148C189.313 35.4585 191.82 32.3861 191.82 32.3861Z" fill="#FB9934"/>
<path fill-rule="evenodd" clip-rule="evenodd" d="M192.617 41.7171C196.278 40.7899 196.822 46.311 192.986 47.1189C192.986 47.1189 192.387 55.2537 184.654 56.8975C178.373 58.2324 176.066 49.3898 175.631 47.6206C175.166 45.7343 173.832 39.4963 173.832 39.4963L191.495 35.7332L192.617 41.7171Z" fill="#FFE0D1"/>
<path fill-rule="evenodd" clip-rule="evenodd" d="M191.387 45.4552C190.722 45.4174 189.811 41.9709 189.811 41.9709C187.851 41.9981 187.43 41.6447 185.514 39.6197C179.487 42.3043 175.289 43.6254 175.715 48.356C175.715 48.356 168.71 38.7126 176.212 33.1614C182.811 28.2833 191.183 29.7689 193.763 35.2901C195.587 39.1866 195.135 42.4292 195.135 42.4292C195.135 42.4292 193.854 41.1116 192.364 41.8254C190.874 42.5392 192.052 45.4931 191.387 45.4552Z" fill="#42474F"/>
<path d="M185.051 51.4336C185.051 51.4336 183.54 53.3816 181.097 52.3776" stroke="#F77B7B" stroke-width="1.5" stroke-linecap="round"/>
<path d="M184.218 53.4952C183.701 53.8809 183.153 54.0174 182.605 53.8589" stroke="#F49494" stroke-linecap="round"/>
<path d="M192.857 44.6978C192.635 43.8407 192.754 43.0975 193.608 42.7715" stroke="#F77B7B" stroke-linecap="round"/>
<path fill-rule="evenodd" clip-rule="evenodd" d="M180.596 61.3727C180.492 61.3677 176.874 62.9519 176.458 63.5626C173.744 67.5413 168.761 81.545 168.504 84.5828C168.215 88.087 173.27 93.6691 173.332 98.7419C173.387 103.815 171.17 119.091 172.03 120.518C172.883 121.945 178.492 128.723 179.662 128.751C180.839 128.779 181.717 125.22 183.5 125.297C185.275 125.375 188.978 130.093 190.575 130.06C192.164 130.025 208.64 119.596 207.38 116.624C206.114 113.653 200.237 106.269 200.836 102.22C201.427 98.1719 206.155 83.2284 207.862 78.1425C209.562 73.0565 210.932 69.0051 207.759 66.8166C204.586 64.6281 194.263 60.625 194.263 60.625L185.021 65.7911C185.021 65.7911 181.132 61.3985 180.596 61.3727Z" fill="#FF9F43"/>
<path fill-rule="evenodd" clip-rule="evenodd" d="M183.882 65.6475C181.11 74.8586 177.305 83.9347 175.782 92.5719L180.214 90.186L184.302 93.281C184.013 84.3013 185.522 74.8726 186.215 65.6475H183.882Z" fill="#FFF6E1"/>
<path fill-rule="evenodd" clip-rule="evenodd" d="M200.073 72.7203L200.179 73.4651C201.42 82.7151 199.951 93.9396 197.404 95.6521C194.804 97.4002 184.685 95.6847 184.685 97.0691C184.685 98.4535 198.669 111.141 196.373 117.206C195.111 120.54 195.534 123.506 197.641 126.103L198.253 125.692C203.03 122.455 208.1 118.322 207.381 116.624C206.114 113.653 200.237 106.269 200.836 102.22C201.404 98.3338 205.784 84.4065 207.643 78.7988L208.236 77.0209C208.924 74.9362 209.497 73.0479 209.636 71.4185L209.208 71.1417C202.378 66.7669 199.333 67.2932 200.073 72.7203Z" fill="black" fill-opacity="0.159856"/>
<path fill-rule="evenodd" clip-rule="evenodd" d="M195.969 61.2773L194.263 60.625L184.818 65.5238C184.818 65.5238 186.594 70.0397 189.739 67.7909C192.435 65.8679 191.298 64.1757 193.411 63.3028C195.517 62.4299 195.969 61.2773 195.969 61.2773Z" fill="#FFF6E1"/>
<path fill-rule="evenodd" clip-rule="evenodd" d="M184.818 65.5233C184.133 67.0429 182.741 67.9308 182.022 67.6548C180.834 67.1988 181.344 65.3823 180.876 64.4647C180.54 63.8136 180.324 63.7154 180.03 63.1041C179.758 62.5434 179.747 61.8704 179.816 61.6847L180.746 61.2627C181.597 62.0649 182.221 62.6787 182.617 63.1041C183.11 63.6342 183.844 64.4406 184.818 65.5233Z" fill="#FFF6E1"/>
<path fill-rule="evenodd" clip-rule="evenodd" d="M195.217 89.921C195.217 89.921 189.656 85.0095 187.953 84.4395C186.251 83.8696 176.281 83.1848 176.344 84.4728C176.416 85.8526 181.771 85.7732 182.325 86.4521C182.88 87.1306 183.006 91.7702 185.104 92.2911C187.197 92.812 193.472 93.71 193.472 93.71L208.483 102.744L209.125 94.4897L195.217 89.921Z" fill="#FFE0D1"/>
<path fill-rule="evenodd" clip-rule="evenodd" d="M210.011 69.1256C215.87 77.3771 220.872 89.946 222.792 94.8463C224.712 99.7466 222.775 107.138 214.332 105.687C213.382 105.523 211.84 105.114 209.709 104.459L207.691 93.1099C209.426 93.8369 210.293 94.2003 210.293 94.2003C210.293 94.2003 201.902 79.3575 199.853 75.3785C196.43 68.7333 204.85 61.8553 210.011 69.1256Z" fill="#FFB66F"/>
<path fill-rule="evenodd" clip-rule="evenodd" d="M210.293 94.1999C213.135 95.585 214.377 95.9729 214.02 95.3636C213.662 94.7544 211.884 93.4043 208.686 91.3135L210.293 94.1999Z" fill="black" fill-opacity="0.159856"/>
<path fill-rule="evenodd" clip-rule="evenodd" d="M209.887 93.6758L211.281 105.948L205.769 104.2L206.601 92.1729L209.887 93.6758Z" fill="#FFEDC2"/>
<path fill-rule="evenodd" clip-rule="evenodd" d="M204.603 111.924C212.032 123.095 211.306 131.175 202.424 136.165C191.045 142.557 155.951 135.07 155.951 135.07C155.951 135.07 156.573 140.071 155.951 144.532C154.325 156.182 146.593 175.591 144.957 178.03C142.695 181.403 135.804 178.859 135.674 176.051C135.544 173.243 140.869 137.377 141.679 130.537C142.484 123.697 145.027 122.704 152.456 120.834C154.162 120.405 174.343 115.4 176.192 115.546C186.782 116.381 196.252 115.174 204.603 111.924Z" fill="#42474F"/>
<path opacity="0.439941" fill-rule="evenodd" clip-rule="evenodd" d="M196.508 134.303C184.987 135.591 154.487 132.936 153.262 134.142C152.092 135.294 152.288 155.337 149.664 166.937C152.248 159.908 155.046 151.017 155.951 144.532C156.573 140.071 155.951 135.07 155.951 135.07L157.143 135.307C163.361 136.513 192.187 141.688 202.423 136.165C208.427 132.926 210.75 127.91 209.392 121.119C207.754 129.131 203.46 133.525 196.508 134.303Z" fill="white" fill-opacity="0.192499"/>
<path d="M137.562 134.907C136.521 135.148 135.319 133.797 134.879 131.891C134.439 129.984 134.927 128.243 135.968 128.003C137.01 127.762 138.212 129.113 138.652 131.02C139.092 132.926 138.604 134.667 137.562 134.907Z" fill="white" fill-opacity="0.192499"/>
<path d="M144.736 132.917C143.366 132.524 142.732 130.542 143.32 128.49C143.909 126.438 145.497 125.093 146.867 125.486C148.238 125.879 148.872 127.861 148.283 129.913C147.695 131.965 146.107 133.31 144.736 132.917Z" fill="white" fill-opacity="0.192499"/>
<path d="M117.694 64.1147L134.855 62.2683C135.686 62.179 136.49 62.5917 136.902 63.3187L148.11 83.1114C148.68 84.1179 148.326 85.3959 147.32 85.9659C147.11 86.0847 146.881 86.1664 146.643 86.2074L129.54 89.156C128.653 89.3089 127.767 88.8781 127.34 88.086L116.074 67.191C115.525 66.1728 115.906 64.9025 116.924 64.3535C117.163 64.2248 117.424 64.1437 117.694 64.1147Z" fill="#10C2C6"/>
<path fill-rule="evenodd" clip-rule="evenodd" d="M118.381 64.019L135.112 61.3707C135.995 61.231 136.869 61.6669 137.289 62.4561L148.056 82.7061C148.599 83.7274 148.212 84.9955 147.19 85.5386C146.985 85.6476 146.764 85.7217 146.534 85.758L129.803 88.4063C128.92 88.546 128.045 88.1101 127.626 87.3209L116.859 67.0709C116.316 66.0496 116.703 64.7815 117.725 64.2384C117.93 64.1294 118.151 64.0553 118.381 64.019Z" fill="url(#paint0_linear_76_4152)"/>
<path d="M117.198 65.5664L136.114 62.3387L147.723 84.1715L128.898 87.0422L117.198 65.5664Z" fill="white"/>
<path d="M122.606 61.9922L129.513 61.0496C130.056 60.9755 130.591 61.2347 130.869 61.7071L131.946 63.5366C132.137 63.8603 132.029 64.2771 131.705 64.4676C131.627 64.5134 131.541 64.5432 131.452 64.5554L124.545 65.498C124.001 65.5721 123.467 65.3129 123.189 64.8405L122.112 63.0109C121.921 62.6873 122.029 62.2705 122.352 62.08C122.43 62.0342 122.516 62.0044 122.606 61.9922Z" fill="#0EABAF"/>
<path fill-rule="evenodd" clip-rule="evenodd" d="M131.955 68.721C132.207 68.587 132.519 68.6821 132.653 68.9333C132.777 69.1665 132.703 69.4524 132.49 69.5993L132.438 69.6307L124.02 71.0509C123.768 71.1849 123.455 71.0898 123.322 70.8386C123.198 70.6054 123.272 70.3195 123.485 70.1726L123.536 70.1412L131.955 68.721Z" fill="#0EABAF" fill-opacity="0.5"/>
<path fill-rule="evenodd" clip-rule="evenodd" d="M134.373 73.2688C134.625 73.1349 134.938 73.2299 135.071 73.4811C135.195 73.7144 135.121 74.0003 134.908 74.1472L134.857 74.1785L126.438 75.5988C126.186 75.7327 125.874 75.6377 125.74 75.3865C125.616 75.1532 125.69 74.8673 125.903 74.7204L125.955 74.6891L134.373 73.2688Z" fill="#0EABAF" fill-opacity="0.5"/>
<path fill-rule="evenodd" clip-rule="evenodd" d="M136.792 77.8177C137.044 77.6837 137.356 77.7787 137.49 78.0299C137.614 78.2632 137.54 78.5491 137.327 78.696L137.275 78.7274L128.857 80.1476C128.605 80.2816 128.292 80.1865 128.159 79.9353C128.035 79.7021 128.109 79.4162 128.322 79.2692L128.373 79.2379L136.792 77.8177Z" fill="#0EABAF" fill-opacity="0.5"/>
<path fill-rule="evenodd" clip-rule="evenodd" d="M115.352 112.878H128.364V195.068H115.352V112.878Z" fill="#D2D2D2"/>
<path fill-rule="evenodd" clip-rule="evenodd" d="M115.352 109.649H123.159V195.069H115.352V109.649Z" fill="#EBEBEB"/>
<path fill-rule="evenodd" clip-rule="evenodd" d="M56.1519 112.878H120.562V137.53H69.1641V195.068H56.1519V112.878Z" fill="#D2D2D2"/>
<path fill-rule="evenodd" clip-rule="evenodd" d="M56.1519 112.878H63.9592V195.068H56.1519V112.878Z" fill="#EBEBEB"/>
<path fill-rule="evenodd" clip-rule="evenodd" d="M217.228 112.878H230.24V195.068H217.228V112.878Z" fill="#C5C5C5"/>
<path fill-rule="evenodd" clip-rule="evenodd" d="M158.027 112.878H222.438V143.393H171.04V195.068H158.027V112.878Z" fill="#D2D2D2"/>
<path fill-rule="evenodd" clip-rule="evenodd" d="M66.5566 109.649L165.759 109.649V143.333H66.5566V109.649Z" fill="#EBEBEB"/>
<path fill-rule="evenodd" clip-rule="evenodd" d="M156.076 112.878H163.883V143.333H156.076V112.878Z" fill="#C3C3C3"/>
<path fill-rule="evenodd" clip-rule="evenodd" d="M158.027 112.878H165.835V195.068H158.027V112.878Z" fill="#EBEBEB"/>
<path fill-rule="evenodd" clip-rule="evenodd" d="M165.505 109.649H232.559C235.234 109.649 237.402 111.818 237.402 114.493C237.402 117.168 235.234 119.336 232.559 119.336H165.505C162.83 119.336 160.661 117.168 160.661 114.493C160.661 111.818 162.83 109.649 165.505 109.649Z" fill="#C5C5C5"/>
<path fill-rule="evenodd" clip-rule="evenodd" d="M58.8247 111.587H158.027V121.274H58.8247V111.587Z" fill="#D2D2D2"/>
<path fill-rule="evenodd" clip-rule="evenodd" d="M54.0393 109.649H167.497C170.172 109.649 172.341 111.818 172.341 114.493C172.341 117.168 170.172 119.336 167.497 119.336H54.0393C51.3643 119.336 49.1958 117.168 49.1958 114.493C49.1958 111.818 51.3643 109.649 54.0393 109.649Z" fill="#EBEBEB"/>
<path fill-rule="evenodd" clip-rule="evenodd" d="M182.084 100.666H185.356C185.988 100.666 186.5 101.165 186.5 101.782V103.31C186.5 104.77 185.286 105.953 183.788 105.953H182.084C181.813 105.953 181.593 105.739 181.593 105.475C181.593 105.211 181.813 104.997 182.084 104.997H183.788C184.744 104.997 185.519 104.242 185.519 103.31V101.782C185.519 101.694 185.446 101.622 185.356 101.622H182.084C181.813 101.622 181.593 101.408 181.593 101.144C181.593 100.88 181.813 100.666 182.084 100.666Z" fill="#10C2C6"/>
<path fill-rule="evenodd" clip-rule="evenodd" d="M171.218 99.4502C170.496 99.4502 169.91 100.021 169.91 100.725V103.913C169.91 106.208 171.687 108.098 173.973 108.347L173.973 109.013H179.697L179.698 108.333C181.926 108.032 183.641 106.168 183.641 103.913V100.725C183.641 100.021 183.056 99.4502 182.333 99.4502H171.218Z" fill="#0EABAF"/>
<path fill-rule="evenodd" clip-rule="evenodd" d="M183.566 108.375H170.473C170.297 108.375 170.154 108.518 170.154 108.694C170.154 108.873 170.293 109.022 170.472 109.033L175.284 109.345H178.716L183.567 109.033C183.746 109.021 183.885 108.873 183.885 108.694C183.885 108.518 183.742 108.375 183.566 108.375Z" fill="#10C2C6"/>
<path fill-rule="evenodd" clip-rule="evenodd" d="M96.4233 107.598H159.228C159.719 107.598 160.117 107.996 160.117 108.487C160.117 108.978 159.719 109.376 159.228 109.376H96.4233C95.9323 109.376 95.5342 108.978 95.5342 108.487C95.5342 107.996 95.9323 107.598 96.4233 107.598Z" fill="#10C2C6"/>
<path fill-rule="evenodd" clip-rule="evenodd" d="M138.966 107.598H159.228C159.719 107.598 160.117 107.996 160.117 108.487C160.117 108.978 159.719 109.376 159.228 109.376H138.966C138.475 109.376 138.077 108.978 138.077 108.487C138.077 107.996 138.475 107.598 138.966 107.598Z" fill="#0EABAF"/>
<path fill-rule="evenodd" clip-rule="evenodd" d="M95.6311 80.75H133.318C134.857 80.75 136.156 81.892 136.353 83.4177L139.043 104.222C139.259 105.898 138.076 107.432 136.4 107.649C136.27 107.666 136.139 107.674 136.008 107.674H98.3207C96.7824 107.674 95.4832 106.532 95.286 105.006L92.5964 84.2023C92.3797 82.5263 93.5628 80.9919 95.2388 80.7753C95.3689 80.7584 95.5 80.75 95.6311 80.75Z" fill="#0EABAF"/>
<path fill-rule="evenodd" clip-rule="evenodd" d="M95.6311 80.75H131.926C133.464 80.75 134.764 81.892 134.961 83.4177L137.65 104.222C137.867 105.898 136.684 107.432 135.008 107.649C134.878 107.666 134.747 107.674 134.616 107.674H98.3207C96.7824 107.674 95.4832 106.532 95.286 105.006L92.5964 84.2023C92.3797 82.5263 93.5628 80.9919 95.2388 80.7753C95.3689 80.7584 95.5 80.75 95.6311 80.75Z" fill="url(#paint1_linear_76_4152)"/>
<path d="M116.217 97.0411C117.435 96.1233 117.612 94.3046 116.614 92.9789C115.615 91.6533 113.817 91.3227 112.599 92.2405C111.381 93.1583 111.204 94.977 112.203 96.3026C113.202 97.6283 114.999 97.9589 116.217 97.0411Z" fill="white"/>
<path fill-rule="evenodd" clip-rule="evenodd" d="M227.282 164.249C232.694 152.142 237.61 139.708 242.111 127C231.744 136.663 223.682 148.435 224.83 164.249H227.282Z" fill="#57E295"/>
<path fill-rule="evenodd" clip-rule="evenodd" d="M224.398 165.513C223.118 144.87 223.66 125.698 234.395 114.75C232.914 137.416 230.144 153.382 226.636 165.513H224.398Z" fill="#28C76F"/>
<path fill-rule="evenodd" clip-rule="evenodd" d="M223.906 163.364C217.908 148.938 211.882 144.803 206.9 129.995C223.204 138.356 224.226 145.26 227.426 163.364H223.906Z" fill="#57E295"/>
<path fill-rule="evenodd" clip-rule="evenodd" d="M220.678 163.363L209.918 148.938C215.115 150.402 223.8 152.774 223.8 163.363H220.678Z" fill="#28C76F"/>
<path fill-rule="evenodd" clip-rule="evenodd" d="M230.741 163.364H234.33C236.611 158.654 239.825 155.412 247.601 159.342C242.504 151.664 232.046 149.34 230.741 163.364Z" fill="#57E295"/>
<path fill-rule="evenodd" clip-rule="evenodd" d="M227.439 163.363H230.424C235.902 155.616 238.257 152.24 243.926 145.624C236.458 148.426 228.792 152.24 227.439 163.363Z" fill="#28C76F"/>
<mask id="mask1_76_4152" style="mask-type:alpha" maskUnits="userSpaceOnUse" x="213" y="162" width="29" height="33">
<path d="M219.936 162.245H235.014C235.588 162.245 236.053 162.703 236.053 163.268V166.081C239.866 170.813 241.773 175.544 241.773 180.276C241.773 184.861 240.145 189.447 236.889 194.033C236.694 194.307 236.376 194.47 236.036 194.47H218.913C218.573 194.47 218.255 194.307 218.061 194.033C214.805 189.447 213.177 184.861 213.177 180.276C213.177 175.633 215.012 170.991 218.682 166.349L218.896 166.081V163.268C218.896 162.703 219.361 162.245 219.936 162.245Z" fill="white"/>
</mask>
<g mask="url(#mask1_76_4152)">
<path d="M219.936 162.245H235.014C235.588 162.245 236.053 162.703 236.053 163.268V166.081C239.866 170.813 241.773 175.544 241.773 180.276C241.773 184.861 240.145 189.447 236.889 194.033C236.694 194.307 236.376 194.47 236.036 194.47H218.913C218.573 194.47 218.255 194.307 218.061 194.033C214.805 189.447 213.177 184.861 213.177 180.276C213.177 175.633 215.012 170.991 218.682 166.349L218.896 166.081V163.268C218.896 162.703 219.361 162.245 219.936 162.245Z" fill="#0EABAF"/>
<path fill-rule="evenodd" clip-rule="evenodd" d="M209.537 161.359H223.055C216.583 176.18 229.349 184.957 223.055 199.722H209.537V161.359Z" fill="#0FB9BD"/>
</g>
</g>
</g>
<defs>
<linearGradient id="paint0_linear_76_4152" x1="119.988" y1="43.4026" x2="143.45" y2="87.5273" gradientUnits="userSpaceOnUse">
<stop stop-color="#0EABAF"/>
<stop offset="1" stop-color="#11D0B3"/>
</linearGradient>
<linearGradient id="paint1_linear_76_4152" x1="123.544" y1="66.4515" x2="123.544" y2="107.674" gradientUnits="userSpaceOnUse">
<stop stop-color="#0EABAF"/>
<stop offset="1" stop-color="#11D0B3"/>
</linearGradient>
<clipPath id="clip0_76_4152">
<rect width="304.3" height="170" fill="white" transform="translate(0.350098)"/>
</clipPath>
</defs>
</svg>
