<svg width="748" height="548" viewBox="0 0 748 548" fill="none" xmlns="http://www.w3.org/2000/svg">
<path opacity="0.07" d="M674.82 166.748C684.198 154.23 701.954 151.68 714.479 161.051C726.879 170.33 729.505 187.815 720.457 200.31L720.18 200.687L645.88 299.873C636.416 312.506 618.84 315.709 605.541 307.302L605.139 307.043L558.365 276.447L511.205 345.093C502.437 357.855 485.064 361.193 472.202 352.67L471.813 352.408C459.043 343.645 455.704 326.282 464.232 313.427L464.494 313.039L526.293 223.085C535.499 209.684 553.641 205.991 567.341 214.644L567.755 214.91L615.398 246.074L674.82 166.748Z" fill="#0EABAF"/>
<path opacity="0.07" d="M431.618 5.79424C433.996 2.33984 438.732 1.46128 442.196 3.83194C445.615 6.17139 446.518 10.8009 444.256 14.2421L444.164 14.3791L425.648 41.279C422.933 45.0698 417.681 45.9829 413.845 43.3606L413.708 43.2654L403.074 35.6946L391.548 53.9538C389.339 57.4536 384.734 58.5368 381.196 56.4185L381.057 56.3332C377.547 54.1305 376.46 49.5392 378.585 46.0109L378.67 45.8722L393.955 21.658C396.473 17.669 401.757 16.4705 405.758 18.9812L405.967 19.1168L406.173 19.2584L417.03 26.9883L431.618 5.79424Z" fill="#0EABAF"/>
<path opacity="0.07" fill-rule="evenodd" clip-rule="evenodd" d="M636.403 129.308V111.331H654.392C655.773 111.331 656.892 110.212 656.892 108.831V100.176C656.892 98.7954 655.773 97.6761 654.392 97.6761H636.403V79.5664C636.403 78.1857 635.284 77.0664 633.903 77.0664H625.108C623.727 77.0664 622.608 78.1857 622.608 79.5664V97.6761H604.619C603.238 97.6761 602.119 98.7954 602.119 100.176V108.831C602.119 110.212 603.238 111.331 604.619 111.331H622.608V129.308C622.608 130.689 623.727 131.808 625.108 131.808H633.903C635.284 131.808 636.403 130.689 636.403 129.308Z" fill="#FF9F43"/>
<path opacity="0.07" fill-rule="evenodd" clip-rule="evenodd" d="M93.1026 22.5C143.694 22.5 184.707 63.4886 184.707 114.051C184.707 164.613 143.694 205.601 93.1026 205.601C42.5112 205.601 1.49867 164.613 1.49867 114.051C1.49867 63.4886 42.5112 22.5 93.1026 22.5ZM93.1026 67.8034C67.5461 67.8034 46.8285 88.5089 46.8285 114.051C46.8285 139.592 67.5461 160.298 93.1026 160.298C118.659 160.298 139.377 139.592 139.377 114.051C139.377 88.5089 118.659 67.8034 93.1026 67.8034Z" fill="#FF9F43"/>
<path fill-rule="evenodd" clip-rule="evenodd" d="M78.0963 87.5H548.225C557.061 87.5 564.225 94.6634 564.225 103.5V307.724C564.225 316.561 557.061 323.724 548.225 323.724H78.0963C69.2597 323.724 62.0963 316.561 62.0963 307.724V103.5C62.0963 94.6634 69.2597 87.5 78.0963 87.5Z" fill="#FFF7F0"/>
<path opacity="0.383371" fill-rule="evenodd" clip-rule="evenodd" d="M85.6471 87.5H548.225C557.061 87.5 564.225 94.6634 564.225 103.5V307.724C564.225 316.561 557.061 323.724 548.225 323.724H85.6471C76.8105 323.724 69.6471 316.561 69.6471 307.724V103.5C69.6471 94.6634 76.8105 87.5 85.6471 87.5Z" fill="#FF9F43"/>
<path fill-rule="evenodd" clip-rule="evenodd" d="M87.1978 95.0596H546.674C552.197 95.0596 556.674 99.5367 556.674 105.06V306.166C556.674 311.689 552.197 316.166 546.674 316.166H87.1978C81.675 316.166 77.1978 311.689 77.1978 306.166V105.06C77.1978 99.5367 81.675 95.0596 87.1978 95.0596Z" fill="#FFF7F0"/>
<path fill-rule="evenodd" clip-rule="evenodd" d="M282.35 296.322H351.521C354.835 296.322 357.521 299.009 357.521 302.322V316.165H276.35V302.322C276.35 299.009 279.037 296.322 282.35 296.322Z" fill="#D4EFFF"/>
<path fill-rule="evenodd" clip-rule="evenodd" d="M289.901 296.322H359.072C362.386 296.322 365.072 299.009 365.072 302.322V323.724H283.901V302.322C283.901 299.009 286.587 296.322 289.901 296.322Z" fill="#91D6FF"/>
<g filter="url(#filter0_dd_48_5342)">
<path d="M96.7444 104.508H221.768C224.744 104.508 227.157 106.92 227.157 109.897V150.547C227.157 153.523 224.744 155.935 221.768 155.935H96.7444C93.7683 155.935 91.3556 153.523 91.3556 150.547V109.897C91.3556 106.92 93.7683 104.508 96.7444 104.508Z" fill="black"/>
</g>
<path d="M96.7444 104.508H221.768C224.744 104.508 227.157 106.92 227.157 109.897V150.547C227.157 153.523 224.744 155.935 221.768 155.935H96.7444C93.7683 155.935 91.3556 153.523 91.3556 150.547V109.897C91.3556 106.92 93.7683 104.508 96.7444 104.508Z" fill="white"/>
<path opacity="0.454078" fill-rule="evenodd" clip-rule="evenodd" d="M133.064 133.531H158.492C159.335 133.531 160.019 134.215 160.019 135.059C160.019 135.902 159.335 136.586 158.492 136.586H133.064C132.22 136.586 131.537 135.902 131.537 135.059C131.537 134.215 132.22 133.531 133.064 133.531Z" fill="#5CD3D6"/>
<path fill-rule="evenodd" clip-rule="evenodd" d="M133.064 124.875H148.319C149.163 124.875 149.847 125.559 149.847 126.403C149.847 127.246 149.163 127.93 148.319 127.93H133.064C132.22 127.93 131.537 127.246 131.537 126.403C131.537 125.559 132.22 124.875 133.064 124.875Z" fill="#0EABAF"/>
<path fill-rule="evenodd" clip-rule="evenodd" d="M206.313 122.784C208.482 119.929 212.553 119.376 215.404 121.548C216.06 122.048 216.615 122.668 217.039 123.376C217.257 123.741 217.139 124.214 216.775 124.432C216.41 124.651 215.938 124.533 215.72 124.168C215.396 123.628 214.973 123.155 214.473 122.774C212.342 121.15 209.318 121.522 207.64 123.585L207.536 123.716L205.152 126.853C201.427 131.753 195.124 133.914 189.193 132.348L188.939 132.279L187.02 131.737C186.897 131.702 186.772 131.67 186.647 131.643C183.139 130.869 179.668 133.041 178.809 136.51L178.769 136.682L178.373 138.48C178.233 139.116 177.961 139.716 177.576 140.241C176.05 142.317 173.133 142.762 171.059 141.235C170.717 140.983 170.644 140.501 170.895 140.158C171.147 139.816 171.628 139.743 171.97 139.994C173.36 141.018 175.315 140.72 176.337 139.329C176.563 139.021 176.73 138.675 176.832 138.307L176.871 138.149L177.267 136.351C178.235 131.951 182.583 129.17 186.978 130.139L187.209 130.194L187.438 130.255L189.357 130.797C194.671 132.298 200.357 130.445 203.772 126.122L203.928 125.921L206.313 122.784Z" fill="#0EABAF"/>
<path fill-rule="evenodd" clip-rule="evenodd" d="M199.382 121.853C200.952 118.356 205.057 116.796 208.549 118.368C209.251 118.684 209.895 119.114 210.456 119.642C211.775 120.884 212.996 122.847 214.142 125.534C214.308 125.925 214.127 126.378 213.736 126.544C213.345 126.711 212.893 126.529 212.727 126.138C211.658 123.63 210.542 121.837 209.402 120.764C208.966 120.353 208.464 120.018 207.918 119.772C205.25 118.571 202.123 119.72 200.853 122.337L200.785 122.484L200.29 123.586C200.175 123.842 200.042 124.091 199.894 124.33C198.066 127.266 194.207 128.163 191.274 126.334C190.925 126.116 190.542 125.958 190.141 125.866C188.189 125.418 186.244 126.601 185.73 128.521L185.697 128.656L184.84 132.398C184.583 133.526 184.035 134.566 183.253 135.417C180.812 138.071 176.714 138.285 174.013 135.933L173.869 135.805L170.383 132.591C170.07 132.303 170.05 131.816 170.338 131.503C170.606 131.211 171.048 131.174 171.36 131.405L171.425 131.459L174.911 134.672C176.984 136.583 180.212 136.45 182.121 134.374C182.676 133.77 183.077 133.043 183.292 132.253L183.341 132.054L184.197 128.313C184.844 125.484 187.659 123.717 190.484 124.365C190.981 124.479 191.458 124.664 191.9 124.915L192.088 125.027C194.3 126.406 197.21 125.73 198.588 123.515C198.663 123.395 198.732 123.272 198.796 123.146L198.887 122.954L199.382 121.853Z" fill="#5CD3D6"/>
<path d="M113.989 141.169C119.748 141.169 124.416 136.496 124.416 130.731C124.416 124.966 119.748 120.293 113.989 120.293C108.231 120.293 103.562 124.966 103.562 130.731C103.562 136.496 108.231 141.169 113.989 141.169Z" fill="#0EABAF"/>
<mask id="mask0_48_5342" style="mask-type:alpha" maskUnits="userSpaceOnUse" x="91" y="163" width="170" height="143">
<path d="M96.3556 163.092H255.305C258.066 163.092 260.305 165.33 260.305 168.092V300.771C260.305 303.533 258.066 305.771 255.305 305.771H96.3556C93.5942 305.771 91.3556 303.533 91.3556 300.771V168.092C91.3556 165.33 93.5942 163.092 96.3556 163.092Z" fill="white"/>
</mask>
<g mask="url(#mask0_48_5342)">
<g filter="url(#filter1_dd_48_5342)">
<path d="M96.3556 163.092H255.305C258.066 163.092 260.305 165.33 260.305 168.092V300.771C260.305 303.533 258.066 305.771 255.305 305.771H96.3556C93.5942 305.771 91.3556 303.533 91.3556 300.771V168.092C91.3556 165.33 93.5942 163.092 96.3556 163.092Z" fill="black"/>
</g>
<path d="M96.3556 163.092H255.305C258.066 163.092 260.305 165.33 260.305 168.092V300.771C260.305 303.533 258.066 305.771 255.305 305.771H96.3556C93.5942 305.771 91.3556 303.533 91.3556 300.771V168.092C91.3556 165.33 93.5942 163.092 96.3556 163.092Z" fill="white"/>
<path d="M114.008 272.7C127.398 268.85 137.045 262.997 142.949 255.139C151.805 243.353 154.791 231.928 170.022 231.928C185.254 231.928 187.207 249.425 203.672 249.425C220.138 249.425 221.038 227.112 226.511 218.252C230.159 212.345 235.132 209.392 241.428 209.392" stroke="#FFD8B3" stroke-width="4.004" stroke-linecap="round"/>
<path opacity="0.414737" fill-rule="evenodd" clip-rule="evenodd" d="M114.008 271.482C127.398 267.649 137.045 261.821 142.949 253.997C151.805 242.262 154.791 230.887 170.022 230.887C185.254 230.887 187.207 248.308 203.672 248.308C220.138 248.308 221.038 226.091 226.511 217.269C230.159 211.388 235.132 208.447 241.428 208.447V282.849C241.428 284.55 240.049 285.929 238.348 285.929H117.088C115.387 285.929 114.008 284.55 114.008 282.849V271.482Z" fill="#FF9F43" fill-opacity="0.2"/>
<path opacity="0.5" d="M157.425 177.266H104.57V182.935H157.425V177.266Z" fill="#FF9F43"/>
<path opacity="0.2" fill-rule="evenodd" clip-rule="evenodd" d="M107.404 191.438H126.275C127.84 191.438 129.11 192.708 129.11 194.273C129.11 195.839 127.84 197.108 126.275 197.108H107.404C105.839 197.108 104.57 195.839 104.57 194.273C104.57 192.708 105.839 191.438 107.404 191.438Z" fill="#FF9F43"/>
<path opacity="0.2" fill-rule="evenodd" clip-rule="evenodd" d="M227.742 183.88C229.566 183.88 231.045 182.399 231.045 180.573C231.045 178.746 229.566 177.266 227.742 177.266C225.918 177.266 224.439 178.746 224.439 180.573C224.439 182.399 225.918 183.88 227.742 183.88Z" fill="#FF9F43"/>
<path opacity="0.2" fill-rule="evenodd" clip-rule="evenodd" d="M237.18 183.88C239.005 183.88 240.484 182.399 240.484 180.573C240.484 178.746 239.005 177.266 237.18 177.266C235.356 177.266 233.877 178.746 233.877 180.573C233.877 182.399 235.356 183.88 237.18 183.88Z" fill="#FF9F43"/>
<path opacity="0.2" fill-rule="evenodd" clip-rule="evenodd" d="M246.619 183.88C248.443 183.88 249.922 182.399 249.922 180.573C249.922 178.746 248.443 177.266 246.619 177.266C244.795 177.266 243.316 178.746 243.316 180.573C243.316 182.399 244.795 183.88 246.619 183.88Z" fill="#FF9F43"/>
</g>
<g filter="url(#filter2_d_48_5342)">
<path d="M294.217 117.736H519.429C523.563 117.736 526.914 121.087 526.914 125.221V275.737C526.914 279.87 523.563 283.221 519.429 283.221H294.217C290.083 283.221 286.733 279.87 286.733 275.737V125.221C286.733 121.087 290.083 117.736 294.217 117.736Z" fill="black"/>
</g>
<path d="M294.217 117.736H519.429C523.563 117.736 526.914 121.087 526.914 125.221V275.737C526.914 279.87 523.563 283.221 519.429 283.221H294.217C290.083 283.221 286.733 279.87 286.733 275.737V125.221C286.733 121.087 290.083 117.736 294.217 117.736Z" fill="white"/>
<path fill-rule="evenodd" clip-rule="evenodd" d="M327.351 202.601V261.787H318.521V202.601H327.351Z" fill="#E0F4F5"/>
<path fill-rule="evenodd" clip-rule="evenodd" d="M327.351 216.744V261.787H318.521V216.744H327.351Z" fill="#5CD3D6"/>
<path fill-rule="evenodd" clip-rule="evenodd" d="M327.351 245.032V261.787H318.521V245.032H327.351Z" fill="#0EABAF"/>
<path fill-rule="evenodd" clip-rule="evenodd" d="M348.544 188.456V261.786H339.714V188.456H348.544Z" fill="#E0F4F5"/>
<path fill-rule="evenodd" clip-rule="evenodd" d="M348.544 209.672V261.786H339.714V209.672H348.544Z" fill="#5CD3D6"/>
<path fill-rule="evenodd" clip-rule="evenodd" d="M348.544 245.032V261.787H339.714V245.032H348.544Z" fill="#0EABAF"/>
<path fill-rule="evenodd" clip-rule="evenodd" d="M369.736 199.064V261.787H360.906V199.064H369.736Z" fill="#E0F4F5"/>
<path fill-rule="evenodd" clip-rule="evenodd" d="M369.736 220.28V261.787H360.906V220.28H369.736Z" fill="#5CD3D6"/>
<path fill-rule="evenodd" clip-rule="evenodd" d="M369.736 248.568V261.787H360.906V248.568H369.736Z" fill="#0EABAF"/>
<path fill-rule="evenodd" clip-rule="evenodd" d="M390.929 181.385V261.787H382.099V181.385H390.929Z" fill="#E0F4F5"/>
<path fill-rule="evenodd" clip-rule="evenodd" d="M390.929 202.601V261.787H382.099V202.601H390.929Z" fill="#5CD3D6"/>
<path fill-rule="evenodd" clip-rule="evenodd" d="M390.929 230.889V261.787H382.099V230.889H390.929Z" fill="#0EABAF"/>
<path fill-rule="evenodd" clip-rule="evenodd" d="M412.121 167.24V261.787H403.291V167.24H412.121Z" fill="#E0F4F5"/>
<path fill-rule="evenodd" clip-rule="evenodd" d="M412.121 195.528V261.787H403.291V195.528H412.121Z" fill="#5CD3D6"/>
<path fill-rule="evenodd" clip-rule="evenodd" d="M412.121 237.96V261.786H403.291V237.96H412.121Z" fill="#0EABAF"/>
<path fill-rule="evenodd" clip-rule="evenodd" d="M433.314 188.456V261.786H424.484V188.456H433.314Z" fill="#E0F4F5"/>
<path fill-rule="evenodd" clip-rule="evenodd" d="M433.314 209.672V261.786H424.484V209.672H433.314Z" fill="#5CD3D6"/>
<path fill-rule="evenodd" clip-rule="evenodd" d="M433.314 242.203V261.786H424.484V242.203H433.314Z" fill="#0EABAF"/>
<path fill-rule="evenodd" clip-rule="evenodd" d="M454.506 195.528V261.787H445.676V195.528H454.506Z" fill="#E0F4F5"/>
<path fill-rule="evenodd" clip-rule="evenodd" d="M454.506 209.672V261.786H445.676V209.672H454.506Z" fill="#5CD3D6"/>
<path fill-rule="evenodd" clip-rule="evenodd" d="M454.506 237.253V261.787H445.676V237.253H454.506Z" fill="#0EABAF"/>
<path fill-rule="evenodd" clip-rule="evenodd" d="M475.699 181.385V261.787H466.869V181.385H475.699Z" fill="#E0F4F5"/>
<path fill-rule="evenodd" clip-rule="evenodd" d="M475.699 209.673V261.787H466.869V209.673H475.699Z" fill="#5CD3D6"/>
<path fill-rule="evenodd" clip-rule="evenodd" d="M475.699 244.325V261.787H466.869V244.325H475.699Z" fill="#0EABAF"/>
<path fill-rule="evenodd" clip-rule="evenodd" d="M496.891 195.528V261.787H488.061V195.528H496.891Z" fill="#E0F4F5"/>
<path fill-rule="evenodd" clip-rule="evenodd" d="M496.891 209.672V261.786H488.061V209.672H496.891Z" fill="#5CD3D6"/>
<path fill-rule="evenodd" clip-rule="evenodd" d="M496.891 244.325V261.787H488.061V244.325H496.891Z" fill="#0EABAF"/>
<path opacity="0.57573" fill-rule="evenodd" clip-rule="evenodd" d="M317.817 146.024H388.454C389.626 146.024 390.576 146.974 390.576 148.146C390.576 149.318 389.626 150.268 388.454 150.268H317.817C316.645 150.268 315.696 149.318 315.696 148.146C315.696 146.974 316.645 146.024 317.817 146.024Z" fill="#0EABAF"/>
<path d="M355.255 134.002H315.696V138.245H355.255V134.002Z" fill="#0EABAF"/>
<path fill-rule="evenodd" clip-rule="evenodd" d="M559.54 452.382L570.983 542.79L564.983 542.71L553.54 453.228L559.54 452.382Z" fill="#BFE7FF"/>
<path fill-rule="evenodd" clip-rule="evenodd" d="M472.671 457.148C472.671 451.931 476.9 447.703 482.116 447.703H519.879C525.6 447.703 530.382 443.349 530.918 437.653L536.956 373.46C537.492 367.763 542.274 363.41 547.995 363.41H571.695C577.819 363.41 582.783 368.374 582.783 374.498C582.783 374.782 582.772 375.065 582.751 375.348L576.526 456.354C576.082 462.132 571.265 466.593 565.471 466.593H482.116C476.9 466.593 472.671 462.364 472.671 457.148Z" fill="#91D6FF"/>
<path fill-rule="evenodd" clip-rule="evenodd" d="M571.442 363.41C572.016 363.41 572.581 363.454 573.132 363.538C573.221 364.1 573.267 364.676 573.267 365.262C573.267 365.546 573.256 365.831 573.234 366.114L567.014 446.832C566.569 452.608 561.752 457.068 555.959 457.068H472.829L472.673 457.067C472.672 457.006 472.671 456.945 472.671 456.884C472.671 451.681 476.889 447.463 482.092 447.463H519.742C525.462 447.463 530.244 443.111 530.781 437.416L536.814 373.457C537.351 367.762 542.132 363.41 547.853 363.41H571.442Z" fill="#BFE7FF"/>
<path fill-rule="evenodd" clip-rule="evenodd" d="M546.775 347.84C558.973 344.998 559.776 328.246 550.502 322.434C560.067 302.375 537.949 282.458 522.799 294.741C512.867 290.487 504.614 307.086 513.856 319.977C509.981 342.113 517.867 347.834 532.083 348.077L546.775 347.84Z" fill="#422851"/>
<path fill-rule="evenodd" clip-rule="evenodd" d="M546.623 343.839C546.623 343.839 540.689 342.446 540.483 332.717C540.278 322.989 540.422 319.669 540.422 319.669L527.352 319.433C527.352 319.433 527.209 330.274 527.207 334.196C527.202 344.729 519.867 343.839 519.867 343.839C519.867 343.839 521.391 352.38 533.235 353.046C542.482 353.567 546.623 343.839 546.623 343.839Z" fill="url(#paint0_linear_48_5342)"/>
<path fill-rule="evenodd" clip-rule="evenodd" d="M543.469 314.81C549.3 314.584 548.349 323.125 542.292 323.113C542.292 323.113 538.774 335.245 526.56 335.245C516.64 335.245 515.995 321.105 515.905 318.284C515.808 315.277 515.796 305.396 515.796 305.396L543.696 305.383L543.469 314.81Z" fill="url(#paint1_linear_48_5342)"/>
<path d="M528.914 327.096C528.914 327.096 526.005 329.56 522.636 327.252" stroke="#F77B7B" stroke-width="1.5" stroke-linecap="round"/>
<path d="M526.994 329.95C526.089 330.368 525.217 330.398 524.44 329.982" stroke="#F49494" stroke-linecap="round"/>
<path d="M542.875 319.403C542.815 318.033 543.232 316.945 544.629 316.727" stroke="#F77B7B" stroke-linecap="round"/>
<path fill-rule="evenodd" clip-rule="evenodd" d="M544.392 313.756C544.392 313.756 541.196 318.046 540.548 318.069C539.901 318.092 539.674 312.489 539.674 312.489C535.754 312.189 525.832 310.213 523.4 305.607C521.699 309.671 518.448 311.476 516.312 311.129L515.907 319.762L514.91 302.406H545.173L544.392 313.756Z" fill="#422851"/>
<path fill-rule="evenodd" clip-rule="evenodd" d="M486.904 515.391C486.904 515.391 492.135 525.962 487.847 529.293C483.552 532.624 472.208 538.868 472.208 538.868L502.262 536.978L495.581 513.924L486.904 515.391Z" fill="url(#paint2_linear_48_5342)"/>
<path fill-rule="evenodd" clip-rule="evenodd" d="M499.355 525.451C497.872 525.624 499.455 530.62 496.244 531C493.039 531.38 491.482 526.646 487.845 528.147C484.208 529.648 470.944 537.406 470.422 540.578C469.893 543.749 474.835 544.682 481.612 543.966C488.389 543.249 489.639 540.837 494.726 541.809C499.807 542.78 503.614 541.232 503.446 537.517C503.279 533.803 500.838 525.278 499.355 525.451Z" fill="#222D4E"/>
<path fill-rule="evenodd" clip-rule="evenodd" d="M486.186 528.917L486.846 529.907C487.153 530.367 487.028 530.988 486.569 531.294C486.547 531.309 486.525 531.322 486.502 531.335L477.536 536.341C477.245 536.503 476.893 536.51 476.596 536.36L475.204 535.653C477.39 534.069 479.177 532.879 481.153 531.71C482.669 530.813 484.348 529.888 486.186 528.917Z" fill="white" fill-opacity="0.540975"/>
<path fill-rule="evenodd" clip-rule="evenodd" d="M532.176 422.225C523.078 422.631 472.438 433.838 463.238 435.742C454.037 437.645 446.259 447.948 453.275 459.877C461.154 473.268 481.486 511.299 486.422 519.872C488.865 524.116 501.191 521.737 498.296 514.614C492.898 501.338 490.392 467.985 476.631 455.824C476.631 455.824 522.908 463.882 542.898 454.651C557.426 447.942 554.139 421.242 532.176 422.225Z" fill="url(#paint3_linear_48_5342)"/>
<path fill-rule="evenodd" clip-rule="evenodd" d="M467.709 368.392C467.709 368.392 467.812 360.985 465.222 357.114C462.633 353.243 462.53 349.131 460.57 349.266C458.61 349.401 460.551 358.958 460.551 358.958C460.551 358.958 458.064 358.007 456.278 356.805C454.491 355.603 449.074 349.675 447.808 350.726C445.662 352.515 449.119 362.611 451.002 364.629C452.891 366.648 463.211 373.287 463.211 373.287L467.709 368.392Z" fill="url(#paint4_linear_48_5342)"/>
<path fill-rule="evenodd" clip-rule="evenodd" d="M523.623 363.954C519.39 373.776 511.641 391.819 508.446 397.202C504.442 403.944 498.128 406.914 490.736 401.912C482.969 396.656 461.582 376.157 460.955 371.513C460.333 366.87 465.568 361.298 470.305 364.183C475.041 367.067 494.723 383.455 494.723 383.455C494.723 383.455 502.666 363.083 509.055 351.281C514.589 341.071 530.065 349.022 523.623 363.954Z" fill="#0EA6AA"/>
<path fill-rule="evenodd" clip-rule="evenodd" d="M494.641 383.465C493.218 388.292 492.341 390.566 492.008 390.286C491.676 390.007 491.803 387.102 492.389 381.573L494.641 383.465Z" fill="black" fill-opacity="0.302803"/>
<path fill-rule="evenodd" clip-rule="evenodd" d="M565.921 352.119C565.921 352.119 555.721 386.29 555.419 392.758C555.117 399.227 563.761 418.239 562.289 423.045C558.896 434.149 515.573 438.931 513.917 423.992C513.145 417.026 514.752 410.773 512.901 402.564C511.056 394.355 503.642 382.156 507.847 370.687C512.053 359.219 510.926 348.608 513.934 346.603C516.941 344.597 523.972 342.467 523.972 342.467C527.392 347.502 538.934 347.428 544.442 342.112C544.442 342.112 558.125 344.768 565.921 352.119Z" fill="#13B5B9"/>
<path fill-rule="evenodd" clip-rule="evenodd" d="M556.781 357.654C549.982 368.449 550.002 387.244 546.351 389.706C542.7 392.168 528.488 389.752 528.488 391.701C528.488 393.651 548.127 411.516 544.903 420.056C543.215 424.528 543.673 428.529 546.277 432.058L547.127 431.873C554.865 430.123 561.086 426.981 562.289 423.045C563.761 418.239 554.12 399.227 554.422 392.758C554.678 387.268 562.785 361.815 565.23 354.247C563.239 350.734 560.423 351.869 556.781 357.654Z" fill="black" fill-opacity="0.199355"/>
<path fill-rule="evenodd" clip-rule="evenodd" d="M545.187 386.294C545.187 386.294 536.596 378.686 533.967 377.803C531.337 376.921 515.934 375.86 516.032 377.855C516.142 379.992 524.415 379.869 525.272 380.921C526.129 381.972 526.324 389.158 529.564 389.965C532.798 390.772 542.493 392.163 542.493 392.163L545.187 386.294Z" fill="url(#paint5_linear_48_5342)"/>
<path fill-rule="evenodd" clip-rule="evenodd" d="M568.042 354.083C577.094 366.864 584.821 386.332 587.787 393.923C590.753 401.513 587.761 412.961 574.718 410.714C561.699 408.472 540.983 396.292 538.691 392.739C536.399 389.185 539.881 382.72 544.266 383.566C548.328 384.349 568.479 392.922 568.479 392.922C568.479 392.922 555.515 369.931 552.35 363.768C547.062 353.475 560.07 342.822 568.042 354.083Z" fill="#0EA6AA"/>
<path fill-rule="evenodd" clip-rule="evenodd" d="M568.274 392.765C572.8 395.015 574.787 395.668 574.235 394.724C573.683 393.781 570.832 391.651 565.683 388.336L568.274 392.765Z" fill="black" fill-opacity="0.302803"/>
<path fill-rule="evenodd" clip-rule="evenodd" d="M235.561 511.695C235.561 511.695 235.425 520.406 240.772 523.5C246.117 526.595 254.4 532.345 254.4 532.345L222.892 533.413L223.79 511.616L235.561 511.695Z" fill="#F8CFCF"/>
<path fill-rule="evenodd" clip-rule="evenodd" d="M221.792 521.294L221.279 535.426H228.598L229.099 533.606C229.099 533.606 231.855 533.493 233.447 534.279C235.13 535.111 235.356 535.514 235.356 535.514L258.57 535.563C258.57 535.563 259.715 530.995 252.639 527.692C245.562 524.387 240.41 519.697 239.431 519.217C238.446 518.734 236.457 518.46 235.056 519.597C233.655 520.732 232.548 523.719 229.374 523.813C225.289 523.933 222.942 518.904 221.792 521.294Z" fill="#4B4B4B"/>
<path d="M241.631 520.75L239.224 523.078" stroke="white" stroke-width="2" stroke-linecap="round"/>
<path d="M245.14 522.515L242.733 524.843" stroke="white" stroke-width="2" stroke-linecap="round"/>
<path d="M248.649 524.279L246.242 526.607" stroke="white" stroke-width="2" stroke-linecap="round"/>
<path fill-rule="evenodd" clip-rule="evenodd" d="M212.5 323.5C212.5 323.5 221.253 419.88 221.526 426.579C221.798 433.279 218.714 444.842 218.774 457.374C218.814 465.729 219.19 484.629 219.9 514.075L239.21 514.484C244.62 461.273 247.355 430.677 247.413 422.698C247.5 410.729 248.244 324.652 248.244 324.652L212.5 323.5Z" fill="#383838"/>
<path opacity="0.283552" fill-rule="evenodd" clip-rule="evenodd" d="M226.419 429.579L226.44 429.818C226.731 433.903 224.193 447.346 218.827 470.145L218.774 457.374C218.715 445.065 221.689 433.692 221.537 426.943L221.526 426.579C221.434 424.321 220.379 411.879 219.02 396.372L219.655 398.643C223.378 412.095 225.632 422.407 226.419 429.579Z" fill="white" fill-opacity="0.192499"/>
<path fill-rule="evenodd" clip-rule="evenodd" d="M188.977 510.467L185.253 533.026L198.981 532.957L199.415 510.113L188.977 510.467Z" fill="#F8CFCF"/>
<path fill-rule="evenodd" clip-rule="evenodd" d="M185.137 523.057L185.026 526.41C183.655 527.932 182.667 530.975 182.062 535.54C182.062 538.729 203.277 538.635 204.297 535.54C203.556 530.568 202.387 527.457 200.789 526.207L200.777 522.885C200.771 521.532 199.861 520.35 198.554 519.999L196.491 519.445C194.484 516.518 191.749 516.622 189.406 519.811L187.5 520.224C186.156 520.516 185.183 521.683 185.137 523.057Z" fill="#4B4B4B"/>
<path d="M190.185 522.249H195.743" stroke="white" stroke-width="2" stroke-linecap="round"/>
<path d="M190.185 524.894H195.743" stroke="white" stroke-width="2" stroke-linecap="round"/>
<path d="M191.069 527.538H194.859" stroke="white" stroke-width="2" stroke-linecap="round"/>
<path fill-rule="evenodd" clip-rule="evenodd" d="M195.901 324.765C195.901 324.765 189.767 390.831 189.85 403.483C189.934 416.135 191.738 421.691 189.17 430.767C187.458 436.818 185.872 463.991 184.411 512.286L203.403 514.365C211.491 462.686 215.975 433.264 216.854 426.099C218.174 415.352 234.48 323.854 234.48 323.854L195.901 324.765Z" fill="#2E2E2E"/>
<path opacity="0.283552" fill-rule="evenodd" clip-rule="evenodd" d="M201.03 369.605L199.872 373.799C196.48 386.174 193.349 399.261 194.169 417.956L194.209 418.809C194.41 422.859 191.834 446.361 186.48 489.317L185.971 492.336C185.445 495.415 184.978 498.043 184.568 500.218L184.685 496.413C185.367 475.415 187.204 437.716 189.17 430.768C191.738 421.692 189.934 416.135 189.85 403.483C189.792 394.627 192.78 359.598 194.578 339.377L195.901 324.765L203.917 324.576L203.937 326.827C204.078 347.599 203.109 361.859 201.03 369.605Z" fill="white" fill-opacity="0.192499"/>
<path fill-rule="evenodd" clip-rule="evenodd" d="M289.335 243.066C289.335 243.066 287.749 234.328 288.319 232.558C288.806 231.029 293.408 228.824 293.408 228.824C293.408 228.824 301.413 216.318 303.164 217.591C304.589 218.623 298.996 227.843 298.996 227.843C298.996 227.843 304.097 233.136 304.025 235.502C303.954 237.868 295.7 245.274 295.7 245.274L289.335 243.066Z" fill="#F8CFCF"/>
<path fill-rule="evenodd" clip-rule="evenodd" d="M293.58 228.697C293.58 228.697 297.125 228.221 297.689 229.312C298.17 230.241 295.225 232.878 295.225 233.62C295.225 234.361 295.267 239.971 295.504 240.022C295.741 240.073 299.055 230.867 298.349 228.919C297.767 227.321 293.58 228.697 293.58 228.697Z" fill="#F28585"/>
<path fill-rule="evenodd" clip-rule="evenodd" d="M247.046 254.184C237.76 246.162 223.817 260.624 239.365 274.069C245.296 279.198 263.928 291.993 268.495 294.806C275.766 299.285 281.741 295.244 284.197 288.197C286.28 282.223 298.738 250.243 297.153 245.545C296.119 242.482 290.571 239.501 287.786 241.912C283.716 245.435 271.266 276.339 271.266 276.339C271.266 276.339 257.603 263.305 247.046 254.184Z" fill="#0EABAF"/>
<path fill-rule="evenodd" clip-rule="evenodd" d="M271.266 276.339C273.984 279.636 275.442 281.033 275.638 280.53C275.834 280.026 274.756 277.655 272.404 273.418L271.266 276.339Z" fill="black" fill-opacity="0.159856"/>
<path d="M286.704 243.894C289.944 242.394 293.483 244.248 295.433 247.224" stroke="#5386BF" stroke-linecap="round"/>
<path fill-rule="evenodd" clip-rule="evenodd" d="M207.241 244.932C207.241 244.932 212.58 243.703 212.765 235.128C212.95 226.553 212.82 223.626 212.82 223.626L225.476 223.418C225.476 223.418 225.603 232.975 225.606 236.432C225.611 243.957 231.312 245.99 231.312 245.99C231.312 245.99 230.838 254.219 220.183 254.806C211.864 255.265 207.241 244.932 207.241 244.932Z" fill="#F8C5C5"/>
<path fill-rule="evenodd" clip-rule="evenodd" d="M236.751 214.382L236.468 222.486C238.86 219.73 240.475 216.314 240.953 211.933L236.751 214.382Z" fill="url(#paint6_linear_48_5342)"/>
<path fill-rule="evenodd" clip-rule="evenodd" d="M211.658 219.291C206.412 219.092 207.268 226.621 212.717 226.61C212.717 226.61 218.573 238.154 227.767 238.184C232.196 238.198 233.642 234.331 234.97 231.616C236.297 228.901 237.272 224.84 237.353 222.354C237.44 219.703 237.451 210.993 237.451 210.993L211.454 210.981L211.658 219.291Z" fill="#F8CFCF"/>
<path fill-rule="evenodd" clip-rule="evenodd" d="M237.451 214.989H219.168C218.976 218.228 217.878 220.918 215.092 222.902C215.171 227.646 216.79 231.101 219.598 233.523C222.042 226.655 236.994 228.534 235.907 233.015C233.622 242.429 212.207 242.642 213.506 220.976C212.652 219.834 209.596 219.621 208.591 220.763C206.873 216.029 207.606 209.333 212.574 208.364C208.674 198.277 261.696 196.143 237.451 214.989Z" fill="#424242"/>
<path d="M225.736 232.6C225.736 232.6 228.118 234.315 231.254 232.439" stroke="#CC6969" stroke-linecap="round"/>
<path d="M212.476 223.589C212.53 222.381 212.154 221.422 210.898 221.229" stroke="#DE6767" stroke-linecap="round"/>
<path fill-rule="evenodd" clip-rule="evenodd" d="M209.589 243.5L224.691 253.296L231.501 245.387C231.501 245.387 245.848 249.827 248.509 255.018C252.35 262.508 247.29 322.522 249.496 326.143C254.196 333.86 247.947 339.158 227.257 341.104C206.567 343.05 188.211 341.457 191.542 331.158C194.874 320.859 182.019 253.647 193.352 249.945C196.893 248.788 209.589 243.5 209.589 243.5Z" fill="#13B5B9"/>
<path fill-rule="evenodd" clip-rule="evenodd" d="M199.397 262.029C200.311 263.644 199.84 269.237 197.982 278.809C196.4 286.964 198.209 295.399 202.987 302.205L203.255 302.581C204.871 304.811 206.36 307.747 207.723 311.389C211.067 320.32 203.355 327.766 209.265 341.739L208.55 341.705C196.954 341.106 189.29 338.123 191.542 331.158C194.274 322.714 186.124 276.01 189.346 257.421C194.926 258.515 198.276 260.051 199.397 262.029Z" fill="black" fill-opacity="0.159856"/>
<path fill-rule="evenodd" clip-rule="evenodd" d="M209.589 243.5L223.098 252.295C221.117 254.593 220.055 257.266 219.654 260.209C214.463 256.156 209.066 250.492 207.394 244.402L209.589 243.5Z" fill="#11A3A6"/>
<path fill-rule="evenodd" clip-rule="evenodd" d="M225.759 252.066C228.043 253.608 229.866 256.339 231.349 259.444C233.127 255.876 233.808 251.164 233.808 246.139L231.578 245.259L225.759 252.066Z" fill="#11A3A6"/>
<path fill-rule="evenodd" clip-rule="evenodd" d="M223.098 252.295L223.274 252.393C224.084 252.844 225.094 252.712 225.759 252.066C230.852 270.707 234.434 291.224 235.517 312.076L230.202 320.89L223.985 312.641C224.795 290.97 224.789 269.839 223.098 252.295Z" fill="#CBC6FF"/>
<path d="M239.389 297.31L251.695 299.109C253.003 299.3 253.927 300.49 253.789 301.805L251.58 322.818C251.438 324.172 250.226 325.154 248.872 325.011C248.839 325.008 248.806 325.004 248.774 324.999L236.468 323.2C235.159 323.009 234.235 321.819 234.374 320.504L236.582 299.491C236.724 298.137 237.937 297.155 239.29 297.298C239.323 297.301 239.356 297.305 239.389 297.31Z" fill="#6182EC"/>
<path fill-rule="evenodd" clip-rule="evenodd" d="M240.972 296.906L253.84 299.43L262.645 299.283C264.005 299.26 265.127 300.344 265.149 301.705C265.151 301.805 265.147 301.905 265.136 302.004L262.931 322.985C262.801 324.224 261.767 325.171 260.522 325.191L251.116 325.349L237.817 322.741C236.565 322.495 235.707 321.334 235.841 320.065L238.048 299.067C238.19 297.713 239.402 296.732 240.756 296.874C240.828 296.881 240.901 296.892 240.972 296.906Z" fill="#96EFFA"/>
<path d="M242.252 302.58L248.157 303.661C248.98 303.811 249.548 304.57 249.461 305.402L249.209 307.796C249.117 308.675 248.329 309.313 247.45 309.22C247.41 309.216 247.37 309.21 247.33 309.203L241.424 308.122C240.602 307.972 240.034 307.213 240.121 306.381L240.373 303.987C240.465 303.108 241.252 302.47 242.131 302.563C242.172 302.567 242.212 302.573 242.252 302.58Z" fill="#74CFDB"/>
<path d="M253.736 299.42L254.253 299.474C254.692 299.52 255.011 299.914 254.965 300.353L252.417 324.597C252.37 325.036 251.977 325.355 251.537 325.309L251.02 325.255C250.581 325.208 250.262 324.815 250.308 324.375L252.857 300.132C252.903 299.692 253.296 299.373 253.736 299.42Z" fill="#EAEFFF"/>
<path d="M254.439 299.493L254.956 299.547C255.395 299.593 255.714 299.987 255.668 300.426L253.119 324.67C253.073 325.11 252.68 325.428 252.24 325.382L251.723 325.328C251.284 325.282 250.965 324.888 251.011 324.449L253.559 300.205C253.606 299.765 253.999 299.447 254.439 299.493Z" fill="#7AD2DD"/>
<path fill-rule="evenodd" clip-rule="evenodd" d="M223.39 308.914C223.39 308.914 227.976 307.997 229.854 306.533C231.73 305.069 237.415 304.034 237.415 304.034L235.596 307.84C235.596 307.84 249.529 306.54 249.858 307.906C250.189 309.271 246.159 310.756 246.159 310.756C246.159 310.756 244.172 314.444 242.248 316.582C240.428 318.605 231.384 318.364 228.214 317.101C225.475 316.011 222.496 316.556 222.496 316.556L223.39 308.914Z" fill="#F8CFCF"/>
<path fill-rule="evenodd" clip-rule="evenodd" d="M186.502 255.739C191.483 245.042 208.542 252.249 204.243 263.709C200.079 274.81 189.989 300.73 189.989 300.73C189.989 300.73 221.962 304.763 224.454 306.644C227.779 309.153 225.724 316.313 222.897 317.588C220.506 318.666 202.744 319.296 185.366 317.935C176.768 317.262 170.41 313.592 169.523 304.059C168.902 297.383 181.702 266.044 186.502 255.739Z" fill="#0EABAF"/>
<path fill-rule="evenodd" clip-rule="evenodd" d="M190.001 300.724C188.23 304.07 187.597 305.777 188.103 305.845C188.61 305.913 190.15 304.329 192.724 301.091L190.001 300.724Z" fill="black" fill-opacity="0.159856"/>
<path d="M222.203 306.098C223.189 309.227 222.496 312.895 221.129 315.487" stroke="#5386BF" stroke-linecap="round"/>
<path fill-rule="evenodd" clip-rule="evenodd" d="M86.8633 445.846C95.0922 442.151 104.759 445.826 108.454 454.055C108.468 454.087 108.482 454.119 108.496 454.15L111.359 460.635C103.13 464.33 93.4633 460.655 89.7681 452.426C89.7539 452.394 89.7399 452.363 89.7259 452.331L86.8633 445.846Z" fill="#28C76F"/>
<path fill-rule="evenodd" clip-rule="evenodd" d="M98.6742 449.801C106.924 455.672 112.273 462.214 114.738 469.425C117.215 476.672 118.23 488.821 117.769 505.847C117.762 506.11 117.968 506.33 118.23 506.337C118.491 506.344 118.709 506.136 118.716 505.873C119.18 488.741 118.157 476.496 115.633 469.114C113.098 461.697 107.622 455 99.2202 449.021C99.0065 448.869 98.7111 448.92 98.5603 449.136C98.4096 449.351 98.4606 449.649 98.6742 449.801Z" fill="#209D58"/>
<path fill-rule="evenodd" clip-rule="evenodd" d="M156.989 441.82C148.891 438.011 139.24 441.488 135.432 449.586C135.417 449.618 135.402 449.65 135.387 449.682L132.173 456.633C140.27 460.442 149.922 456.965 153.73 448.867C153.745 448.835 153.76 448.803 153.775 448.771L156.989 441.82Z" fill="#28C76F"/>
<path fill-rule="evenodd" clip-rule="evenodd" d="M91.9973 425.885C99.8412 424.217 107.552 429.225 109.219 437.069L110.569 443.419C102.725 445.086 95.0143 440.079 93.3471 432.235L91.9973 425.885Z" fill="#28C76F"/>
<path fill-rule="evenodd" clip-rule="evenodd" d="M97.7658 430.951C103.811 435.172 107.901 439.723 110.046 444.599L110.177 444.906L110.31 445.229C112.508 450.684 116.147 464.975 121.206 488.044C121.263 488.302 121.516 488.465 121.771 488.409C122.026 488.353 122.188 488.099 122.131 487.841L121.504 484.996L120.772 481.702C116.201 461.261 112.92 448.78 110.911 444.214C108.689 439.162 104.483 434.481 98.3034 430.167C98.088 430.017 97.7931 430.07 97.6446 430.287C97.4962 430.503 97.5504 430.801 97.7658 430.951Z" fill="#209D58"/>
<path fill-rule="evenodd" clip-rule="evenodd" d="M145.124 421.061C136.48 420.908 129.35 427.792 129.198 436.435C129.198 436.437 129.198 436.438 129.198 436.44L129.064 444.153C137.708 444.305 144.838 437.422 144.99 428.778C144.99 428.777 144.99 428.775 144.99 428.774L145.124 421.061Z" fill="#28C76F"/>
<path fill-rule="evenodd" clip-rule="evenodd" d="M139.45 424.162C133.889 432.323 129.826 440.2 127.262 447.794C124.703 455.375 122.15 467.082 119.6 482.924C119.558 483.185 119.733 483.43 119.991 483.472C120.249 483.515 120.492 483.338 120.534 483.078L120.848 481.151L121.063 479.853C123.429 465.687 125.796 455.1 128.159 448.102C130.693 440.595 134.716 432.795 140.231 424.703C140.379 424.486 140.324 424.188 140.109 424.039C139.893 423.89 139.599 423.945 139.45 424.162Z" fill="#209D58"/>
<path fill-rule="evenodd" clip-rule="evenodd" d="M127.405 418.816C124.398 427.381 122.231 437.972 120.902 450.589C119.573 463.205 119.296 475.822 120.071 488.438L122.272 488.638C121.484 473.913 121.563 461.258 122.51 450.672C123.456 440.087 125.454 429.502 128.505 418.916L127.405 418.816Z" fill="#209D58"/>
<path fill-rule="evenodd" clip-rule="evenodd" d="M127.021 423.261C130.912 424.239 134.852 421.852 135.822 417.928C136.792 414.004 133.929 402.031 132.367 401.638C130.804 401.245 122.703 410.461 121.733 414.385C120.763 418.309 123.131 422.283 127.021 423.261Z" fill="#73E3A5"/>
<path fill-rule="evenodd" clip-rule="evenodd" d="M128.101 420.172C130.807 420.852 133.563 419.132 134.256 416.329C134.949 413.527 132.374 406.273 131.288 406C130.201 405.727 125.148 411.062 124.455 413.865C123.762 416.667 125.394 419.491 128.101 420.172Z" fill="#28C76F"/>
<path fill-rule="evenodd" clip-rule="evenodd" d="M129.225 419.505L133.283 406.841C133.524 406.088 133.115 405.281 132.368 405.038C131.622 404.794 130.821 405.207 130.58 405.96L126.522 418.624C126.281 419.377 126.69 420.185 127.437 420.428C128.183 420.671 128.984 420.258 129.225 419.505Z" fill="url(#paint7_linear_48_5342)"/>
<path fill-rule="evenodd" clip-rule="evenodd" d="M105.451 406.087C109.336 414.29 112.599 424.597 115.24 437.005C117.88 449.414 119.474 461.932 120.022 474.561L117.854 474.99C117.098 460.263 115.697 447.685 113.649 437.257C111.602 426.828 108.507 416.51 104.367 406.301L105.451 406.087Z" fill="#209D58"/>
<path fill-rule="evenodd" clip-rule="evenodd" d="M106.297 410.467C102.53 411.847 98.3616 409.884 96.9867 406.083C95.6119 402.282 97.2077 390.075 98.7204 389.521C100.233 388.967 109.253 397.286 110.628 401.087C112.003 404.888 110.064 409.088 106.297 410.467Z" fill="#73E3A5"/>
<path fill-rule="evenodd" clip-rule="evenodd" d="M104.9 407.508C102.28 408.468 99.3596 407.045 98.3775 404.33C97.3955 401.615 99.1974 394.132 100.25 393.747C101.302 393.361 106.885 398.139 107.867 400.854C108.849 403.569 107.521 406.548 104.9 407.508Z" fill="#28C76F"/>
<path fill-rule="evenodd" clip-rule="evenodd" d="M103.712 406.962L98.353 394.791C98.0343 394.068 98.3573 393.222 99.0742 392.902C99.7912 392.582 100.631 392.909 100.949 393.632L106.309 405.803C106.627 406.526 106.304 407.372 105.587 407.692C104.87 408.012 104.031 407.685 103.712 406.962Z" fill="url(#paint8_linear_48_5342)"/>
<path fill-rule="evenodd" clip-rule="evenodd" d="M152.519 443.849C141.292 448.242 133.463 453.32 129.037 459.1C124.61 464.879 121.686 473.842 120.243 485.991C120.212 486.253 120.397 486.49 120.657 486.522C120.917 486.553 121.152 486.366 121.183 486.104C122.607 474.112 125.481 465.304 129.786 459.683C134.09 454.063 141.781 449.075 152.862 444.739C153.106 444.644 153.227 444.367 153.132 444.121C153.037 443.875 152.763 443.753 152.519 443.849Z" fill="#209D58"/>
<path fill-rule="evenodd" clip-rule="evenodd" d="M122.429 479.096C118.875 466.431 110.081 461.952 96.0464 465.658C106.554 469.092 114.487 473.571 119.846 479.096H122.429Z" fill="#22AA5F"/>
<path fill-rule="evenodd" clip-rule="evenodd" d="M122.375 476.177C125.929 463.512 133.629 458.106 145.474 459.958C138.28 465.872 131.441 471.278 124.958 476.177H122.375Z" fill="#22AA5F"/>
<path fill-rule="evenodd" clip-rule="evenodd" d="M122.336 479.953C119.158 468.717 121.275 458.264 128.687 448.593C128.311 461.899 126.835 471.942 124.26 478.722L122.336 479.953Z" fill="#22AA5F"/>
<path fill-rule="evenodd" clip-rule="evenodd" d="M117.673 476.177C115.566 470.088 113.47 461.583 111.899 453.338C119.662 456.46 122.155 468.898 119.662 476.177H117.673Z" fill="#28C76F"/>
<mask id="mask1_48_5342" style="mask-type:alpha" maskUnits="userSpaceOnUse" x="102" y="470" width="36" height="72">
<path d="M104.53 470.071H135.182C136.296 470.071 137.198 470.974 137.198 472.087C137.198 472.146 137.196 472.204 137.191 472.263L131.284 539.856C131.193 540.897 130.321 541.696 129.275 541.696H110.437C109.392 541.696 108.52 540.897 108.429 539.856L102.522 472.263C102.425 471.154 103.246 470.176 104.355 470.079C104.413 470.074 104.472 470.071 104.53 470.071Z" fill="white"/>
</mask>
<g mask="url(#mask1_48_5342)">
<path d="M104.53 470.071H135.182C136.296 470.071 137.198 470.974 137.198 472.087C137.198 472.146 137.196 472.204 137.191 472.263L131.284 539.856C131.193 540.897 130.321 541.696 129.275 541.696H110.437C109.392 541.696 108.52 540.897 108.429 539.856L102.522 472.263C102.425 471.154 103.246 470.176 104.355 470.079C104.413 470.074 104.472 470.071 104.53 470.071Z" fill="#0D9DA0"/>
<path fill-rule="evenodd" clip-rule="evenodd" d="M97.9093 465.6H110.854C102.832 496.052 126.98 516.989 110.854 547.441H97.9093V465.6Z" fill="#0EABAF"/>
</g>
<path fill-rule="evenodd" clip-rule="evenodd" d="M680.246 452.382L668.803 542.79L674.803 542.71L686.246 453.228L680.246 452.382Z" fill="#91D6FF"/>
<path fill-rule="evenodd" clip-rule="evenodd" d="M646.947 452.382L635.504 542.79L641.504 542.71L652.947 453.228L646.947 452.382Z" fill="#91D6FF"/>
<path fill-rule="evenodd" clip-rule="evenodd" d="M719.994 452.382L731.437 542.79L725.438 542.71L713.995 453.228L719.994 452.382Z" fill="#BFE7FF"/>
<path fill-rule="evenodd" clip-rule="evenodd" d="M633.126 457.148C633.126 451.931 637.354 447.703 642.571 447.703H680.333C686.055 447.703 690.837 443.349 691.373 437.653L697.41 373.46C697.946 367.763 702.728 363.41 708.45 363.41H732.15C738.274 363.41 743.238 368.374 743.238 374.498C743.238 374.782 743.227 375.065 743.205 375.348L736.981 456.354C736.537 462.132 731.72 466.593 725.925 466.593H642.571C637.354 466.593 633.126 462.364 633.126 457.148Z" fill="#91D6FF"/>
<path fill-rule="evenodd" clip-rule="evenodd" d="M731.896 363.41C732.471 363.41 733.036 363.454 733.587 363.538C733.676 364.1 733.721 364.676 733.721 365.262C733.721 365.546 733.71 365.831 733.688 366.114L727.469 446.832C727.024 452.608 722.207 457.068 716.414 457.068H633.284L633.127 457.067C633.126 457.006 633.126 456.945 633.126 456.884C633.126 451.681 637.343 447.463 642.546 447.463H680.196C685.917 447.463 690.698 443.111 691.235 437.416L697.268 373.457C697.805 367.762 702.587 363.41 708.307 363.41H731.896Z" fill="#BFE7FF"/>
<path fill-rule="evenodd" clip-rule="evenodd" d="M644.609 513.915C644.609 513.915 649.855 524.51 645.555 527.849C641.248 531.188 629.871 537.446 629.871 537.446L660.011 535.552L653.312 512.444L644.609 513.915Z" fill="url(#paint9_linear_48_5342)"/>
<path fill-rule="evenodd" clip-rule="evenodd" d="M657.025 523.502C656.077 523.955 657.636 528.212 654.299 527.912C650.963 527.614 648.868 523.214 646.408 523.5C643.947 523.785 642.385 528.216 637.701 531.302C633.017 534.39 626.072 538.071 626.537 541.175C627.003 544.278 637.932 545.109 643.468 544.082C649.005 543.055 651.59 540.83 655.182 541.007C658.774 541.184 661.031 540.745 662.157 538.438C663.283 536.131 658.12 522.979 657.025 523.502Z" fill="#EEDFE8"/>
<path fill-rule="evenodd" clip-rule="evenodd" d="M656.759 537.667L656.452 537.65C652 537.274 648.946 540.074 644.709 540.863C640.471 541.653 629.295 541.926 627.51 539.276C627.426 539.15 627.347 539.021 627.274 538.891C626.675 539.629 626.393 540.417 626.537 541.336C627.003 544.289 637.933 545.08 643.47 544.103C649.007 543.126 651.592 541.008 655.184 541.176L655.822 541.2C659.046 541.288 661.102 540.794 662.16 538.732C662.418 538.229 662.36 537.149 662.101 535.783C660.599 536.811 658.702 537.726 656.759 537.667Z" fill="#EC7AA5"/>
<path fill-rule="evenodd" clip-rule="evenodd" d="M690.012 420.531C680.887 420.939 630.102 432.171 620.875 434.08C611.648 435.988 603.847 446.314 610.883 458.271C618.786 471.694 639.175 509.813 644.126 518.406C646.576 522.66 658.937 520.275 656.034 513.136C650.621 499.828 648.107 466.398 634.307 454.209C634.307 454.209 680.717 462.286 700.764 453.034C715.334 446.308 712.037 419.546 690.012 420.531Z" fill="#413C75"/>
<path fill-rule="evenodd" clip-rule="evenodd" d="M626.36 363.574C626.36 363.574 626.463 358.149 623.866 354.269C621.269 350.389 621.165 346.268 619.2 346.403C617.234 346.538 619.181 356.117 619.181 356.117C619.181 356.117 616.687 355.165 614.895 353.959C613.104 352.754 607.671 346.813 606.402 347.866C604.249 349.66 607.716 359.778 609.604 361.801C611.499 363.825 620.848 369.479 620.848 369.479L648.383 397.219L652.5 382.493L626.36 363.574Z" fill="url(#paint10_linear_48_5342)"/>
<path fill-rule="evenodd" clip-rule="evenodd" d="M681.433 361.125C677.189 370.97 669.417 389.055 666.213 394.451C662.198 401.208 655.866 404.185 648.453 399.171C647.419 398.472 645.417 396.899 642.447 394.453C643.107 388.031 645.506 382.664 649.642 378.348C651.514 379.897 652.45 380.672 652.45 380.672C652.45 380.672 660.416 360.252 666.824 348.423C672.374 338.189 687.894 346.158 681.433 361.125Z" fill="#EA5455"/>
<path fill-rule="evenodd" clip-rule="evenodd" d="M652.368 380.682C650.942 385.52 650.062 387.798 649.728 387.518C649.395 387.238 649.522 384.327 650.111 378.785L652.368 380.682Z" fill="black" fill-opacity="0.159856"/>
<path fill-rule="evenodd" clip-rule="evenodd" d="M699.778 322.911V331.622L706.175 326.472C706.175 326.472 708.141 318.126 709.741 311.927C710.743 308.039 713.187 294.883 703.351 295.5C695.293 281.296 671.827 290.087 671.64 307.44C671.416 328.311 671.599 336.437 671.599 336.437C684.868 337.198 692.337 335.28 699.778 322.911Z" fill="#422851"/>
<path fill-rule="evenodd" clip-rule="evenodd" d="M706.313 339.497C706.313 339.497 700.363 338.1 700.156 328.349C699.95 318.598 700.095 315.27 700.095 315.27L686.987 315.033C686.987 315.033 686.844 325.9 686.842 329.831C686.836 339.388 679.808 340.172 679.808 340.172C679.808 340.172 681.009 348.057 692.887 348.725C702.16 349.247 706.313 339.497 706.313 339.497Z" fill="url(#paint11_linear_48_5342)"/>
<path fill-rule="evenodd" clip-rule="evenodd" d="M703.15 310.401C708.998 310.175 708.044 318.735 701.969 318.724C701.969 318.724 698.441 330.884 686.192 330.884C676.244 330.884 675.597 316.711 675.507 313.884C675.41 310.869 675.398 300.965 675.398 300.965L703.378 300.952L703.15 310.401Z" fill="url(#paint12_linear_48_5342)"/>
<path fill-rule="evenodd" clip-rule="evenodd" d="M703.603 310.345C701.179 310.745 701.473 312.349 700.814 312.209C697.468 311.497 683.924 312.436 682.18 304.988C680.01 309.641 679.48 310.785 674.702 312.034V298.399L704.924 295.5C704.924 295.5 704.454 310.204 703.603 310.345Z" fill="#422851"/>
<path d="M688.554 322.715C688.554 322.715 685.636 325.185 682.257 322.872" stroke="#F77B7B" stroke-width="1.5" stroke-linecap="round"/>
<path d="M686.628 325.575C685.72 325.994 684.846 326.025 684.066 325.607" stroke="#F49494" stroke-linecap="round"/>
<path d="M702.554 315.005C702.494 313.632 702.913 312.541 704.313 312.322" stroke="#F77B7B" stroke-linecap="round"/>
<path fill-rule="evenodd" clip-rule="evenodd" d="M704.984 338.499C697.516 343.073 688.882 344.75 680.845 339.783C667.73 365.644 664.461 396.501 667.616 430.605C686.741 438.177 702.815 436.688 716.5 428.034L704.984 338.499Z" fill="#FFE4F4"/>
<path fill-rule="evenodd" clip-rule="evenodd" d="M611.915 514.34C611.915 514.34 612.074 526.81 601.798 531.473C591.528 536.135 584.212 535.854 585.143 539.459C586.074 543.063 612.804 542.917 615.301 540.098C617.428 537.701 622.055 515.371 623.329 517.079L611.915 514.34Z" fill="url(#paint13_linear_48_5342)"/>
<path fill-rule="evenodd" clip-rule="evenodd" d="M619.379 531.951C617.804 530.817 616.48 537.352 612.203 535.535C607.925 533.718 611.298 527.712 608.606 526.604C605.914 525.497 600.716 531.452 593.812 532.9C586.908 534.346 581.303 535.613 579.71 538.3C578.338 540.61 579.71 541.348 579.71 541.348C579.71 541.348 586.356 544.667 590.486 545.398C596.486 546.459 613.825 547.166 615.725 545.231C616.892 544.044 620.167 532.518 619.379 531.951Z" fill="#EEDFE8"/>
<path fill-rule="evenodd" clip-rule="evenodd" d="M579.335 538.573C578.034 540.695 580.087 541.799 580.334 541.922L581.324 542.344C583.205 543.125 587.446 544.802 590.581 545.401C596.329 546.5 614.129 547.151 616.043 545.261C616.38 544.93 616.795 543.717 617.198 542.141L615.976 542.274C610.098 542.896 596.977 544.023 590.502 542.498C584.755 541.144 581.608 538.916 580.174 537.616C579.825 537.915 579.543 538.233 579.335 538.573Z" fill="#EC7AA5"/>
<path fill-rule="evenodd" clip-rule="evenodd" d="M718.602 416.676C727.446 435.353 725.653 447.898 713.225 454.311C695.196 463.614 641.224 452.611 641.224 452.611C641.224 452.611 642.189 460.376 641.224 467.301C638.706 485.388 626.726 515.522 624.191 519.309C620.686 524.545 610.01 520.596 609.808 516.236C609.607 511.876 617.857 456.192 619.112 445.574C620.36 434.955 624.3 433.412 635.809 430.51C638.453 429.843 669.72 422.072 672.584 422.299C688.992 423.596 704.331 421.722 718.602 416.676Z" fill="#524D87"/>
<path fill-rule="evenodd" clip-rule="evenodd" d="M704.06 451.419C686.211 453.419 638.956 449.297 637.058 451.17C635.246 452.959 635.549 484.074 631.484 502.084L632.102 500.383C635.925 489.766 639.894 476.853 641.224 467.301C642.189 460.375 641.224 452.611 641.224 452.611L643.401 453.032C653.66 454.959 697.36 462.498 713.225 454.311C721.822 449.875 725.329 442.505 723.749 432.202C721.027 443.848 714.464 450.254 704.06 451.419Z" fill="white" fill-opacity="0.056108"/>
<path fill-rule="evenodd" clip-rule="evenodd" d="M704.657 338.52C692.289 379.037 684.872 436.478 723.5 426.485C702.98 388.705 730.876 371.701 724.553 352.175C722.391 345.499 704.819 337.996 704.657 338.52Z" fill="#EA5455"/>
<path fill-rule="evenodd" clip-rule="evenodd" d="M718.608 355.345C704.628 357.455 716.152 381.862 711.538 385.539C706.923 389.216 698.892 389.613 698.026 391.859C696.285 396.374 704.699 407.771 723.267 426.05L723.5 426.486C705.625 393.575 724.488 376.43 725.469 359.651C723.398 356.402 721.111 354.967 718.608 355.345Z" fill="black" fill-opacity="0.159856"/>
<path fill-rule="evenodd" clip-rule="evenodd" d="M681.5 339.499C676.78 351.337 674.511 360.626 672.394 378.002C671.218 387.65 670.924 402.429 671.513 422.339L665.68 423.486C662.9 392.726 661.975 375.366 662.904 371.406C665.244 361.437 666.829 355.612 669.918 346.499C671.62 341.497 681.5 339.499 681.5 339.499Z" fill="#EA5455"/>
<path fill-rule="evenodd" clip-rule="evenodd" d="M702.06 384.516C702.06 384.516 694.444 376.891 691.807 376.006C689.17 375.121 674.723 374.058 674.821 376.058C674.931 378.2 684.228 378.077 685.087 379.131C685.947 380.184 687.142 388.387 690.392 389.196C693.635 390.005 700.358 392.399 700.358 392.399L730.282 407.86L727.094 392.4L702.06 384.516Z" fill="url(#paint14_linear_48_5342)"/>
<path fill-rule="evenodd" clip-rule="evenodd" d="M724.981 352.231C734.058 365.042 741.808 384.555 744.782 392.163C747.757 399.771 744.756 411.246 731.676 408.994C730.637 408.815 729.274 408.397 727.585 407.74C722.775 401.147 721.932 395.486 723.727 390.446C724.854 390.922 725.418 391.16 725.418 391.16C725.418 391.16 712.418 368.116 709.243 361.939C703.94 351.622 716.986 340.943 724.981 352.231Z" fill="#EA5455"/>
<path fill-rule="evenodd" clip-rule="evenodd" d="M725.418 391.161C729.821 393.311 731.745 393.914 731.191 392.968C730.638 392.022 727.875 389.926 722.903 386.682L725.418 391.161Z" fill="black" fill-opacity="0.159856"/>
<path fill-rule="evenodd" clip-rule="evenodd" d="M589.262 345.557L612.732 339.706C614.052 339.376 615.389 340.18 615.719 341.5L624.241 375.68C624.57 377.001 623.766 378.338 622.446 378.667L598.976 384.519C597.656 384.848 596.319 384.045 595.99 382.724L587.467 348.544C587.138 347.224 587.942 345.886 589.262 345.557Z" fill="url(#paint15_linear_48_5342)"/>
<path fill-rule="evenodd" clip-rule="evenodd" d="M590.178 346.108L613.647 340.256C614.968 339.927 616.305 340.731 616.634 342.051L625.156 376.231C625.485 377.552 624.682 378.889 623.361 379.218L599.892 385.07C598.572 385.399 597.234 384.595 596.905 383.275L588.383 349.095C588.054 347.775 588.857 346.437 590.178 346.108Z" fill="#518DF8"/>
<path d="M590.999 346.708L613.071 341.204C614.259 340.908 615.463 341.631 615.759 342.82L623.464 373.723C623.761 374.911 623.037 376.114 621.849 376.411L599.777 381.914C598.589 382.21 597.385 381.487 597.089 380.299L589.384 349.396C589.088 348.208 589.811 347.004 590.999 346.708Z" fill="white"/>
<path fill-rule="evenodd" clip-rule="evenodd" d="M384.704 398.371H396.121V543.25H384.704V398.371Z" fill="#E9E9E9"/>
<path fill-rule="evenodd" clip-rule="evenodd" d="M272.875 403.134H363.064V430.042H287.903V543.251H272.875V403.134Z" fill="#D3D3D3"/>
<path fill-rule="evenodd" clip-rule="evenodd" d="M272.292 403.134H280.292V543.251H272.292V403.134Z" fill="#DBDBDB"/>
<path fill-rule="evenodd" clip-rule="evenodd" d="M664.93 403.134H680.93V543.251H664.93V403.134Z" fill="#E9E9E9"/>
<path fill-rule="evenodd" clip-rule="evenodd" d="M664.93 398.371H674.93V543.25H664.93V398.371Z" fill="#DBDBDB"/>
<path fill-rule="evenodd" clip-rule="evenodd" d="M532.506 403.134H671.506V429.69H551.214V543.251H532.506V403.134Z" fill="#D3D3D3"/>
<path fill-rule="evenodd" clip-rule="evenodd" d="M284.09 398.371L532.979 398.371V438.601H284.09V398.371Z" fill="#DBDBDB"/>
<path fill-rule="evenodd" clip-rule="evenodd" d="M527.271 403.134H538.688V438.601H527.271V403.134Z" fill="#E9E9E9"/>
<path fill-rule="evenodd" clip-rule="evenodd" d="M532.542 403.134H541.542V543.251H532.542V403.134Z" fill="#DBDBDB"/>
<path fill-rule="evenodd" clip-rule="evenodd" d="M541.12 398.371H686.245C690.19 398.371 693.389 401.569 693.389 405.515C693.389 409.46 690.19 412.658 686.245 412.658H541.12C537.174 412.658 533.976 409.46 533.976 405.515C533.976 401.569 537.174 398.371 541.12 398.371Z" fill="#E9E9E9"/>
<path fill-rule="evenodd" clip-rule="evenodd" d="M281.236 401.229H530.125V415.515H281.236V401.229Z" fill="#E9E9E9"/>
<path fill-rule="evenodd" clip-rule="evenodd" d="M267.448 398.371H543.913C547.858 398.371 551.056 401.569 551.056 405.515C551.056 409.46 547.858 412.658 543.913 412.658H267.448C263.503 412.658 260.305 409.46 260.305 405.515C260.305 401.569 263.503 398.371 267.448 398.371Z" fill="#DBDBDB"/>
<path fill-rule="evenodd" clip-rule="evenodd" d="M304.888 507.68L296.99 533.323L313.557 533.924C313.557 533.924 311.686 525.152 314.358 516.93C316.5 510.328 318.248 507.034 318.248 507.034L304.888 507.68Z" fill="#92691F"/>
<path fill-rule="evenodd" clip-rule="evenodd" d="M313.123 526.877C317.339 530.784 321.474 533.461 325.527 534.909C331.608 537.08 333.936 537.104 334.37 537.92L334.448 538.076C335.699 540.658 334.941 544.088 321.08 544.278C317.71 544.324 314.208 542.367 304.909 540.297L304.238 543.916C299.034 543.848 295.997 543.027 295.128 541.456C293.819 539.104 296.045 527.51 297.58 527.29C299.116 527.071 299.419 531.786 303.542 531.889C307.671 531.993 313.123 526.877 313.123 526.877Z" fill="#391B0B"/>
<path fill-rule="evenodd" clip-rule="evenodd" d="M313.123 526.877C317.222 530.675 321.243 533.311 325.188 534.785C324.072 535.843 322.532 536.149 320.567 535.7C318.166 535.152 315.091 532.586 311.343 528.002L311.527 528.223C312.505 527.457 313.123 526.877 313.123 526.877Z" fill="#81411E"/>
<path fill-rule="evenodd" clip-rule="evenodd" d="M267.131 427.412C310.993 430.919 335.945 432.767 341.989 432.954C351.054 433.234 357.98 446.173 350.96 458.116C343.076 471.523 321.655 510.12 317.467 519.045C313.925 526.589 297.827 523.498 300.724 511.972C304.182 498.179 310.628 467.232 324.397 455.057C324.397 455.057 290.91 467.198 272.048 455.423C264.874 450.945 263.235 441.608 267.131 427.412Z" fill="#7A3636"/>
<path fill-rule="evenodd" clip-rule="evenodd" d="M350.96 458.116L349.935 459.875C345.944 466.771 339.501 478.422 333.35 489.769L333.674 488.73C338.431 473.591 345.822 455.757 348.982 450.316C350.09 448.409 351.598 446.465 353.507 444.484C354.316 448.639 353.701 453.453 350.96 458.116Z" fill="white" fill-opacity="0.192499"/>
<path fill-rule="evenodd" clip-rule="evenodd" d="M376.486 507.979C376.486 507.979 380.885 527.537 386.61 529.63C388.814 530.436 369.718 532.737 369.718 532.737L364.924 513.973L376.486 507.979Z" fill="#92691F"/>
<path fill-rule="evenodd" clip-rule="evenodd" d="M366.96 526.13L366.641 542.641L373.223 542.691L373.29 538.979C373.29 538.979 378.42 542.056 381.894 543.137C386.566 544.596 405.025 543.832 407.11 541.609C409.196 539.376 409.241 535.823 404.959 535.386C400.678 534.95 393.598 533.65 390.55 531.317C386.863 528.506 385.46 524.046 384.389 524.042C382.749 524.036 382.623 529.283 374.303 529.357C371.137 529.385 366.96 526.13 366.96 526.13Z" fill="#391B0B"/>
<path fill-rule="evenodd" clip-rule="evenodd" d="M382.686 525.514C382.686 525.514 386.931 532.138 389.455 533.097C391.978 534.047 394.012 532.981 394.012 532.981C394.012 532.981 389.661 531.247 387.98 528.221C384.172 521.366 383.411 524.854 382.686 525.514Z" fill="#81411E"/>
<path fill-rule="evenodd" clip-rule="evenodd" d="M272.574 432.727C272.513 446.741 277.191 455.509 286.606 459.031C300.73 464.314 346.72 462.326 346.72 462.326C346.72 462.326 361.314 516.025 364.811 521.255C368.308 526.485 384.89 527.026 383.993 514.98C383.09 502.934 376.619 458.212 375.367 447.606C374.122 436.999 370.19 434.46 358.708 432.559C354.672 431.891 356.385 430.821 330.441 429.606C324.869 429.345 315.52 431.431 306.929 432.376C301.201 433.006 289.749 433.123 272.574 432.727Z" fill="#7A3636"/>
<path fill-rule="evenodd" clip-rule="evenodd" d="M318.477 433.181V430.74L319.627 430.567C323.81 429.946 327.612 429.474 330.441 429.606L333.424 429.751C356.257 430.906 354.834 431.918 358.708 432.559L359.454 432.686C370.117 434.533 373.975 437.113 375.281 446.918L375.646 449.869C377.375 463.461 383.144 503.657 383.993 514.98C384.061 515.887 384.029 516.722 383.912 517.489L380.55 500.562C375.597 475.466 372.821 460.596 372.222 455.951L372.098 454.986C370.979 446.743 368.05 436.515 358.602 437.182L357.785 437.251C351.133 437.757 338.517 436.481 319.937 433.423L318.477 433.181Z" fill="white" fill-opacity="0.192499"/>
<path d="M384.332 455.856C386.364 456.325 388.677 453.82 389.499 450.261C390.321 446.702 389.34 443.437 387.308 442.967C385.276 442.498 382.963 445.003 382.141 448.563C381.32 452.122 382.301 455.387 384.332 455.856Z" fill="white" fill-opacity="0.192499"/>
<path fill-rule="evenodd" clip-rule="evenodd" d="M282.763 404.815C282.763 404.815 298.154 408.378 297.998 409.776C297.845 411.182 291.069 411.398 291.069 411.398C291.069 411.398 303.595 419.487 302.597 421.065C301.601 422.643 293.434 424.421 290.044 423.148C286.654 421.875 277.867 412.612 277.867 412.612L282.763 404.815Z" fill="url(#paint16_linear_48_5342)"/>
<path fill-rule="evenodd" clip-rule="evenodd" d="M282.902 359.216C277.747 365.578 260.169 385.012 260.169 385.012C260.169 385.012 277.747 397.532 282.173 400.18C289.432 404.521 282.051 416.036 276.728 414.757C269.514 413.02 251.306 400.458 242.751 395.375C234.195 390.292 237.469 382.084 243.799 374.595C248.661 368.842 259.232 357.057 266.669 346.711C274.069 336.417 292.906 346.87 282.902 359.216Z" fill="#EA5455"/>
<path fill-rule="evenodd" clip-rule="evenodd" d="M260.169 385.013C256.87 388.192 255.392 389.904 255.735 390.15C256.078 390.396 258.237 389.172 262.213 386.479L260.169 385.013Z" fill="black" fill-opacity="0.159856"/>
<path fill-rule="evenodd" clip-rule="evenodd" d="M313.594 312.506C317.917 312.98 317.611 320.588 312.349 320.985C311.273 328.32 307.437 331.814 302.761 332.219L303.02 343.312L282.335 343.3C282.335 343.3 288.16 335.463 287.869 324.734C287.579 314.005 288.064 303.926 288.064 303.926L314.857 304.407L313.594 312.506Z" fill="url(#paint17_linear_48_5342)"/>
<path fill-rule="evenodd" clip-rule="evenodd" d="M305.133 291.813C321.069 295.835 314.495 312.828 314.495 312.828C309.679 312.171 305.046 318.013 303.288 323.744C298.207 328.966 291.626 328.958 287.25 325.915C283.236 313.5 281.886 305.226 283.199 301.091C285.168 294.89 290.607 288.147 305.133 291.813Z" fill="#2C272E"/>
<path fill-rule="evenodd" clip-rule="evenodd" d="M267.457 345.787C266.027 348.223 265.002 358.035 267.457 396.908C268.729 417.037 263.32 436.876 264.718 445.609C265.65 451.431 269.318 454.69 275.723 455.386L281.327 437.157L283.962 455.386C310.451 452.909 324.857 448.655 327.178 442.625C330.667 433.56 326.286 412.25 325.243 392.183C324.197 372.037 324.982 351.358 323.057 348.223C319.214 341.968 309.321 339.045 303.182 338.11C295.391 336.922 285.334 336.877 279.354 338.773C273.375 340.668 268.888 343.351 267.457 345.787Z" fill="#EA5455"/>
<path fill-rule="evenodd" clip-rule="evenodd" d="M307.887 359.631C311.022 382.765 315.215 398.998 320.466 408.33C322.637 412.188 324.842 413.779 327.082 413.102L326.549 407.975C326.019 402.787 325.517 397.443 325.243 392.184C325.053 388.516 324.923 384.831 324.827 381.237L307.887 359.631Z" fill="black" fill-opacity="0.159856"/>
<path fill-rule="evenodd" clip-rule="evenodd" d="M279.354 338.773C278.992 338.888 278.641 339.007 278.302 339.131C286.887 342.874 301.062 342.374 308.768 339.324C306.76 338.758 304.835 338.362 303.182 338.11C295.391 336.922 285.334 336.877 279.354 338.773Z" fill="#E5AA41"/>
<path fill-rule="evenodd" clip-rule="evenodd" d="M384.654 379.668C384.654 379.668 397.439 371.133 399.698 369.419C401.951 367.712 404.777 354.768 403.025 352.952C402.179 352.073 395.783 357.986 394.642 358.777C393.509 359.562 387.709 363.056 387.709 363.056C387.709 363.056 389.35 353.148 387.937 352.349C386.892 351.768 384.802 354.318 384.522 357.012C384.242 359.707 381.335 363.223 380.96 367.312C380.79 369.099 379.031 372.513 379.031 372.513L384.654 379.668Z" fill="url(#paint18_linear_48_5342)"/>
<path fill-rule="evenodd" clip-rule="evenodd" d="M308.514 363.301C313.413 373.48 321.734 388.363 326.303 397.089C331.711 407.415 338.155 411.79 351.152 404.128C362.037 397.711 377.733 387.39 385.843 381.781C393.39 376.561 384.469 363.675 377.34 368.029C367.881 373.797 343.694 385.228 343.694 385.228C343.694 385.228 331.247 362.491 326.079 351.575C319.504 337.701 299.034 343.601 308.514 363.301Z" fill="#EA5455"/>
<path fill-rule="evenodd" clip-rule="evenodd" d="M343.694 385.228C345.211 390.572 346.149 393.139 346.507 392.928C346.865 392.716 346.739 389.767 346.13 384.079L343.694 385.228Z" fill="black" fill-opacity="0.159856"/>
<path fill-rule="evenodd" clip-rule="evenodd" d="M293.268 463.721L281.825 544.68L287.824 544.6L299.267 464.567L293.268 463.721Z" fill="#BFE7FF"/>
<path fill-rule="evenodd" clip-rule="evenodd" d="M331.43 463.721L342.873 544.68L336.873 544.6L325.431 464.567L331.43 463.721Z" fill="#91D6FF"/>
<path fill-rule="evenodd" clip-rule="evenodd" d="M258.383 463.721L246.94 544.68L252.939 544.6L264.382 464.567L258.383 463.721Z" fill="#BFE7FF"/>
<path fill-rule="evenodd" clip-rule="evenodd" d="M345.251 459.037C345.251 453.821 341.023 449.592 335.806 449.592H298.044C292.322 449.592 287.54 445.239 287.005 439.543L280.967 375.349C280.431 369.653 275.649 365.3 269.927 365.3H246.227C240.103 365.3 235.139 370.264 235.139 376.388C235.139 376.671 235.15 376.955 235.172 377.237L241.396 458.244C241.84 464.021 246.657 468.483 252.452 468.483H335.806C341.023 468.483 345.251 464.254 345.251 459.037Z" fill="#BFE7FF"/>
<path fill-rule="evenodd" clip-rule="evenodd" d="M275.748 366.863L282.055 448.722C282.5 454.498 287.317 458.958 293.11 458.958H345.093L345.25 458.956C345.251 458.895 345.251 458.834 345.251 458.773C345.251 453.571 341.034 449.353 335.831 449.353H298.181C292.46 449.353 287.679 445.001 287.142 439.306L281.109 375.347C280.766 371.71 278.692 368.621 275.748 366.863Z" fill="#91D6FF"/>
<path fill-rule="evenodd" clip-rule="evenodd" d="M558.735 396.296H474.599C474.186 396.296 473.852 396.63 473.852 397.042V398.139C473.852 398.551 474.186 398.886 474.599 398.886H558.735C559.147 398.886 559.481 398.551 559.481 398.139V397.042C559.481 396.63 559.147 396.296 558.735 396.296Z" fill="url(#paint19_linear_48_5342)"/>
<path fill-rule="evenodd" clip-rule="evenodd" d="M558.743 396.296H526.416C526.004 396.296 525.669 396.63 525.669 397.042V398.139C525.669 398.551 526.004 398.886 526.416 398.886H558.743C559.155 398.886 559.489 398.551 559.489 398.139V397.042C559.489 396.63 559.155 396.296 558.743 396.296Z" fill="#518DF8"/>
<path fill-rule="evenodd" clip-rule="evenodd" d="M562.022 356.796H506.211C504.399 356.796 502.87 358.142 502.64 359.939L498.489 392.352C498.236 394.324 499.63 396.127 501.602 396.38C501.754 396.399 501.907 396.409 502.06 396.409H557.871C559.682 396.409 561.212 395.063 561.442 393.266L565.593 360.853C565.845 358.881 564.451 357.078 562.479 356.825C562.328 356.806 562.175 356.796 562.022 356.796Z" fill="#518DF8"/>
<path fill-rule="evenodd" clip-rule="evenodd" d="M560.323 356.796H505.691C503.88 356.796 502.351 358.142 502.121 359.939L497.97 392.352C497.717 394.324 499.111 396.127 501.083 396.38C501.235 396.399 501.388 396.409 501.541 396.409H556.172C557.984 396.409 559.513 395.063 559.743 393.266L563.894 360.853C564.146 358.881 562.752 357.078 560.78 356.825C560.629 356.806 560.476 356.796 560.323 356.796Z" fill="url(#paint20_linear_48_5342)"/>
<path d="M558.731 358.67H506.973C505.342 358.67 503.966 359.882 503.759 361.499L500.019 390.736C499.792 392.511 501.046 394.134 502.821 394.361C502.958 394.378 503.095 394.387 503.233 394.387H554.991C556.622 394.387 557.998 393.175 558.205 391.558L561.945 362.321C562.172 360.546 560.917 358.923 559.142 358.696C559.006 358.679 558.869 358.67 558.731 358.67Z" fill="white"/>
<path fill-rule="evenodd" clip-rule="evenodd" d="M425.144 406.72C425.144 406.72 438.745 409.893 438.607 411.138C438.472 412.39 432.484 412.582 432.484 412.582C432.484 412.582 443.554 419.785 442.672 421.19C441.791 422.595 434.574 424.178 431.579 423.045C428.583 421.912 420.817 413.664 420.817 413.664L399.03 401.963L406.313 392.359L425.144 406.72Z" fill="url(#paint21_linear_48_5342)"/>
<path fill-rule="evenodd" clip-rule="evenodd" d="M425.267 366.117C420.712 371.782 405.178 389.087 405.178 389.087C405.178 389.087 406.2 389.854 408.244 391.388L398.272 403.485C394.027 400.884 391.198 399.16 389.785 398.315C382.225 393.788 385.117 386.48 390.711 379.811C395.008 374.689 404.349 364.195 410.922 354.982C417.461 345.816 434.108 355.123 425.267 366.117Z" fill="#FFB66F"/>
<path fill-rule="evenodd" clip-rule="evenodd" d="M405.178 389.088C402.263 391.918 400.956 393.443 401.259 393.662C401.562 393.882 403.471 392.792 406.984 390.393L405.178 389.088Z" fill="black" fill-opacity="0.159856"/>
<path fill-rule="evenodd" clip-rule="evenodd" d="M407.627 390.123L394.629 402.991L401.128 407.244L410.056 391.959L407.627 390.123Z" fill="#FFEDC2"/>
<path fill-rule="evenodd" clip-rule="evenodd" d="M449.135 505.734L442.104 528.382L453.922 528.913C453.922 528.913 452.256 521.166 454.634 513.903C456.541 508.073 458.098 505.163 458.098 505.163L449.135 505.734Z" fill="url(#paint22_linear_48_5342)"/>
<path fill-rule="evenodd" clip-rule="evenodd" d="M454.018 522.28C454.018 522.28 453.771 528.047 455.785 529.869C457.798 531.691 468.478 538.417 469.373 539.772C470.268 541.128 468.955 542.783 468.955 542.783C468.955 542.783 458.051 544.493 452.907 541.854C449.194 539.948 446.541 538.391 446.541 538.391L445.401 541.321L439.447 540.466C439.447 540.466 437.612 535.817 438.4 533.505C439.189 531.192 443.258 520.39 443.258 520.39C443.258 520.39 446.845 521.02 454.018 522.28Z" fill="#391B0B"/>
<path fill-rule="evenodd" clip-rule="evenodd" d="M414.748 428.531C423.637 429.398 467.421 439.827 476.436 441.679C485.451 443.531 493.073 453.551 486.198 465.155C481.051 473.838 471.201 491.673 456.65 518.659C456.515 518.691 456.383 518.749 456.247 518.749C451.807 518.749 447.849 518.141 444.038 515.485C447.898 487.189 454.323 469.098 463.312 461.212C463.312 461.212 428.494 473.732 411.082 460.072C400.81 452.014 404.952 427.575 414.748 428.531Z" fill="#33373E"/>
<path fill-rule="evenodd" clip-rule="evenodd" d="M486.198 465.155C484.803 467.51 483.008 470.647 480.976 474.257L483.31 444.943C488.555 449.186 491.174 456.756 486.198 465.155Z" fill="white" fill-opacity="0.192499"/>
<path fill-rule="evenodd" clip-rule="evenodd" d="M514.595 503.944C514.595 503.944 518.472 521.214 523.518 523.062C525.46 523.773 511.532 525.805 511.532 525.805L507.306 509.237L514.595 503.944Z" fill="url(#paint23_linear_48_5342)"/>
<path fill-rule="evenodd" clip-rule="evenodd" d="M509.756 521.044L513.435 542.665L519.811 541.657L519.023 536.311C519.023 536.311 521.82 540.968 524.939 540.767C528.067 540.565 543.709 538.207 543.709 538.207C543.709 538.207 544.061 533.029 536.865 531.846C530.881 530.863 520.676 519.309 520.676 519.309L509.756 521.044Z" fill="#391B0B"/>
<path fill-rule="evenodd" clip-rule="evenodd" d="M422.205 425.671C413.651 443.79 415.384 455.96 427.406 462.182C444.845 471.207 491.249 459.563 491.249 459.563C491.249 459.563 490.316 467.095 491.249 473.814C493.685 491.36 505.668 512.949 506.758 516.506C507.306 518.298 520.67 515.651 520.67 513.526C520.67 511.401 513.852 463.037 512.639 452.736C511.431 442.434 507.62 440.937 496.487 438.121C493.93 437.474 460.783 429.936 458.013 430.156C442.142 431.414 430.206 429.919 422.205 425.671Z" fill="#42474F"/>
<path fill-rule="evenodd" clip-rule="evenodd" d="M458.013 430.156C460.783 429.936 493.93 437.475 496.487 438.121L498.315 438.591C507.81 441.075 511.33 442.928 512.552 452.047L512.881 454.665C513.883 462.304 516.591 480.269 518.734 495.225C516.316 489.728 514.315 483.629 512.731 476.927C509.039 461.307 509.829 448.482 508.838 446.236C507.846 443.99 459.359 436.82 451.027 435.34C447.401 434.696 445.355 433.099 444.89 430.548C448.916 430.661 453.29 430.531 458.013 430.156Z" fill="white" fill-opacity="0.192499"/>
<path fill-rule="evenodd" clip-rule="evenodd" d="M451.703 321.377C455.555 321.799 455.282 328.579 450.593 328.933C449.634 335.47 446.216 338.584 442.049 338.944L442.28 348.831L423.848 348.82C423.848 348.82 429.038 341.836 428.78 332.274C428.521 322.713 428.953 313.73 428.953 313.73L452.827 314.159L451.703 321.377Z" fill="url(#paint24_linear_48_5342)"/>
<path fill-rule="evenodd" clip-rule="evenodd" d="M452.541 321.885C448.055 320.109 444.74 327.757 441.308 333.073C437.875 338.388 428.981 337.485 427.755 333.073C423.114 323.408 419.115 310.269 424.531 309.191C425.293 295.223 461.807 298.521 452.541 321.885Z" fill="#9E5229"/>
<path fill-rule="evenodd" clip-rule="evenodd" d="M427.212 303.904C425.649 305.235 424.65 307 424.531 309.19C419.115 310.269 423.114 323.408 427.755 333.072C428.895 337.175 436.664 338.244 440.508 334.101C444.016 323.586 442.518 311.828 435.43 303.906L427.212 303.904Z" fill="black" fill-opacity="0.199355"/>
<path d="M432.368 308.312C429.937 308.312 427.967 306.34 427.967 303.906C427.967 301.473 429.937 299.5 432.368 299.5C434.798 299.5 436.768 301.473 436.768 303.906C436.768 306.34 434.798 308.312 432.368 308.312Z" fill="#FB9934"/>
<path fill-rule="evenodd" clip-rule="evenodd" d="M456.209 350.502C460.29 356.488 467.09 376.804 467.476 381.374C467.911 386.646 462.251 395.044 462.158 402.677C462.075 410.31 466.379 429.416 465.086 431.563C463.803 433.709 421.19 446.122 418.789 445.102C416.389 444.082 408.102 433.082 409.995 428.611C411.899 424.141 419.765 414 418.865 407.909C417.975 401.819 412.807 379.337 410.241 371.685C407.685 364.033 408.538 355.999 413.308 352.707C415.668 351.078 421.966 346.449 433.182 346.47C444.398 346.492 455.893 350.038 456.209 350.502Z" fill="#FF9F43"/>
<path fill-rule="evenodd" clip-rule="evenodd" d="M465.357 376.467L445.802 362.416L445.808 364.984C445.881 380.83 446.878 389.225 463.475 415.195L463.092 412.549C462.551 408.707 462.131 405.109 462.158 402.676C462.216 397.861 464.491 392.741 466.053 388.294L465.357 376.467Z" fill="black" fill-opacity="0.159856"/>
<path fill-rule="evenodd" clip-rule="evenodd" d="M443.545 346.032C443.86 347.748 443.328 348.606 441.951 348.606C439.884 348.606 426.024 349.062 424.147 348.248C422.896 347.706 422.458 346.967 422.834 346.032H443.545Z" fill="#FFF6E1"/>
<path fill-rule="evenodd" clip-rule="evenodd" d="M512.624 381.36C512.624 381.36 523.911 373.828 525.906 372.315C527.894 370.809 530.389 359.385 528.842 357.782C528.095 357.007 522.449 362.225 521.442 362.924C520.441 363.616 515.321 366.7 515.321 366.7C515.321 366.7 516.77 357.956 515.522 357.25C514.6 356.738 512.754 358.988 512.508 361.366C512.261 363.744 509.694 366.847 509.363 370.456C509.213 372.033 508.629 374.076 508.629 374.076L477.314 387.525L480.59 402.148L512.624 381.36Z" fill="url(#paint25_linear_48_5342)"/>
<path fill-rule="evenodd" clip-rule="evenodd" d="M445.407 366.916C449.732 375.9 457.077 389.034 461.111 396.736C465.885 405.849 471.574 409.71 483.048 402.948C483.944 402.42 485.359 401.568 487.296 400.392L480.192 384.62C477.707 385.718 476.464 386.268 476.464 386.268C476.464 386.268 465.475 366.202 460.913 356.568C455.109 344.323 437.037 349.53 445.407 366.916Z" fill="#FFB66F"/>
<path fill-rule="evenodd" clip-rule="evenodd" d="M476.464 386.268C477.803 390.984 478.631 393.249 478.947 393.063C479.263 392.877 479.152 390.274 478.614 385.254L476.464 386.268Z" fill="black" fill-opacity="0.159856"/>
<path fill-rule="evenodd" clip-rule="evenodd" d="M480.092 383.924L485.039 403.558L492.401 399.578L482.741 382.395L480.092 383.924Z" fill="#FFEDC2"/>
<path fill-rule="evenodd" clip-rule="evenodd" d="M432.839 300.65C432.839 300.65 428.691 295.34 423.901 296.733C419.11 298.126 414.777 306.665 416.834 314.691C418.881 322.719 417.193 327.297 414.71 332.707C408.038 347.26 431.136 356.5 431.136 356.5C429.935 349.311 430.502 343.546 432.839 339.205C436.45 332.499 438.5 323.899 438.5 318.637C438.5 309.486 432.839 300.65 432.839 300.65Z" fill="#9E5229"/>
<path fill-rule="evenodd" clip-rule="evenodd" d="M432.158 463.721L443.601 544.68L437.601 544.6L426.158 464.567L432.158 463.721Z" fill="#91D6FF"/>
<path fill-rule="evenodd" clip-rule="evenodd" d="M465.457 463.721L476.9 544.68L470.9 544.6L459.457 464.567L465.457 463.721Z" fill="#91D6FF"/>
<path fill-rule="evenodd" clip-rule="evenodd" d="M392.41 463.721L380.967 544.68L386.966 544.6L398.409 464.567L392.41 463.721Z" fill="#BFE7FF"/>
<path fill-rule="evenodd" clip-rule="evenodd" d="M479.278 459.037C479.278 453.821 475.049 449.592 469.833 449.592H432.071C426.349 449.592 421.567 445.239 421.031 439.543L414.993 375.349C414.458 369.653 409.676 365.3 403.954 365.3H380.254C374.13 365.3 369.166 370.264 369.166 376.388C369.166 376.671 369.177 376.955 369.199 377.237L375.423 458.244C375.867 464.021 380.684 468.483 386.478 468.483H469.833C475.049 468.483 479.278 464.254 479.278 459.037Z" fill="#BFE7FF"/>
<path fill-rule="evenodd" clip-rule="evenodd" d="M409.775 366.863L416.082 448.722C416.527 454.498 421.344 458.958 427.137 458.958H479.12L479.276 458.956C479.277 458.895 479.278 458.834 479.278 458.773C479.278 453.571 475.06 449.353 469.857 449.353H432.207C426.487 449.353 421.706 445.001 421.168 439.306L415.135 375.347C414.792 371.71 412.719 368.621 409.775 366.863Z" fill="#91D6FF"/>
<defs>
<filter id="filter0_dd_48_5342" x="71.3556" y="85.5078" width="191.801" height="107.428" filterUnits="userSpaceOnUse" color-interpolation-filters="sRGB">
<feFlood flood-opacity="0" result="BackgroundImageFix"/>
<feColorMatrix in="SourceAlpha" type="matrix" values="0 0 0 0 0 0 0 0 0 0 0 0 0 0 0 0 0 0 127 0" result="hardAlpha"/>
<feOffset dx="8" dy="9"/>
<feGaussianBlur stdDeviation="14"/>
<feColorMatrix type="matrix" values="0 0 0 0 1 0 0 0 0 0.623529 0 0 0 0 0.262745 0 0 0 0.229458 0"/>
<feBlend mode="normal" in2="BackgroundImageFix" result="effect1_dropShadow_48_5342"/>
<feColorMatrix in="SourceAlpha" type="matrix" values="0 0 0 0 0 0 0 0 0 0 0 0 0 0 0 0 0 0 127 0" result="hardAlpha"/>
<feOffset dy="2"/>
<feGaussianBlur stdDeviation="7.5"/>
<feColorMatrix type="matrix" values="0 0 0 0 1 0 0 0 0 0.623529 0 0 0 0 0.262745 0 0 0 0.233829 0"/>
<feBlend mode="normal" in2="effect1_dropShadow_48_5342" result="effect2_dropShadow_48_5342"/>
<feBlend mode="normal" in="SourceGraphic" in2="effect2_dropShadow_48_5342" result="shape"/>
</filter>
<filter id="filter1_dd_48_5342" x="71.3556" y="144.092" width="224.949" height="198.68" filterUnits="userSpaceOnUse" color-interpolation-filters="sRGB">
<feFlood flood-opacity="0" result="BackgroundImageFix"/>
<feColorMatrix in="SourceAlpha" type="matrix" values="0 0 0 0 0 0 0 0 0 0 0 0 0 0 0 0 0 0 127 0" result="hardAlpha"/>
<feOffset dx="8" dy="9"/>
<feGaussianBlur stdDeviation="14"/>
<feColorMatrix type="matrix" values="0 0 0 0 0.0755213 0 0 0 0 0.582569 0 0 0 0 0.878793 0 0 0 0.229458 0"/>
<feBlend mode="normal" in2="BackgroundImageFix" result="effect1_dropShadow_48_5342"/>
<feColorMatrix in="SourceAlpha" type="matrix" values="0 0 0 0 0 0 0 0 0 0 0 0 0 0 0 0 0 0 127 0" result="hardAlpha"/>
<feOffset dy="2"/>
<feGaussianBlur stdDeviation="7.5"/>
<feColorMatrix type="matrix" values="0 0 0 0 0.503982 0 0 0 0 0.700178 0 0 0 0 1 0 0 0 0.233829 0"/>
<feBlend mode="normal" in2="effect1_dropShadow_48_5342" result="effect2_dropShadow_48_5342"/>
<feBlend mode="normal" in="SourceGraphic" in2="effect2_dropShadow_48_5342" result="shape"/>
</filter>
<filter id="filter2_d_48_5342" x="276.733" y="107.736" width="272.181" height="197.484" filterUnits="userSpaceOnUse" color-interpolation-filters="sRGB">
<feFlood flood-opacity="0" result="BackgroundImageFix"/>
<feColorMatrix in="SourceAlpha" type="matrix" values="0 0 0 0 0 0 0 0 0 0 0 0 0 0 0 0 0 0 127 0" result="hardAlpha"/>
<feOffset dx="6" dy="6"/>
<feGaussianBlur stdDeviation="8"/>
<feColorMatrix type="matrix" values="0 0 0 0 0.70188 0 0 0 0 0.70188 0 0 0 0 0.70188 0 0 0 0.208725 0"/>
<feBlend mode="normal" in2="BackgroundImageFix" result="effect1_dropShadow_48_5342"/>
<feBlend mode="normal" in="SourceGraphic" in2="effect1_dropShadow_48_5342" result="shape"/>
</filter>
<linearGradient id="paint0_linear_48_5342" x1="534.546" y1="309.953" x2="527.461" y2="359.949" gradientUnits="userSpaceOnUse">
<stop stop-color="#FFAFAF"/>
<stop offset="1" stop-color="#F07777"/>
</linearGradient>
<linearGradient id="paint1_linear_48_5342" x1="537.359" y1="303.529" x2="530.704" y2="332.644" gradientUnits="userSpaceOnUse">
<stop stop-color="#FDC6C6"/>
<stop offset="1" stop-color="#FAB2B2"/>
</linearGradient>
<linearGradient id="paint2_linear_48_5342" x1="489.545" y1="512.961" x2="487.949" y2="533.505" gradientUnits="userSpaceOnUse">
<stop stop-color="#FDC6C6"/>
<stop offset="1" stop-color="#FAB2B2"/>
</linearGradient>
<linearGradient id="paint3_linear_48_5342" x1="522.892" y1="520.624" x2="474.805" y2="430.827" gradientUnits="userSpaceOnUse">
<stop stop-color="#28324F"/>
<stop offset="1" stop-color="#222735"/>
</linearGradient>
<linearGradient id="paint4_linear_48_5342" x1="458.58" y1="342.491" x2="457" y2="371.114" gradientUnits="userSpaceOnUse">
<stop stop-color="#FDC6C6"/>
<stop offset="1" stop-color="#FAB2B2"/>
</linearGradient>
<linearGradient id="paint5_linear_48_5342" x1="532.85" y1="381.053" x2="532.198" y2="386.413" gradientUnits="userSpaceOnUse">
<stop stop-color="#FDC6C6"/>
<stop offset="1" stop-color="#FAB2B2"/>
</linearGradient>
<linearGradient id="paint6_linear_48_5342" x1="239.645" y1="215.962" x2="236.278" y2="217.705" gradientUnits="userSpaceOnUse">
<stop stop-color="#4D63A0"/>
<stop offset="1" stop-color="#222735"/>
</linearGradient>
<linearGradient id="paint7_linear_48_5342" x1="131.191" y1="403.933" x2="131.191" y2="420.498" gradientUnits="userSpaceOnUse">
<stop stop-color="#FE62BE"/>
<stop offset="1" stop-color="#FDB3A8"/>
</linearGradient>
<linearGradient id="paint8_linear_48_5342" x1="100.13" y1="391.68" x2="101.861" y2="408.154" gradientUnits="userSpaceOnUse">
<stop stop-color="#FE62BE"/>
<stop offset="1" stop-color="#FDB3A8"/>
</linearGradient>
<linearGradient id="paint9_linear_48_5342" x1="647.258" y1="511.494" x2="645.659" y2="532.064" gradientUnits="userSpaceOnUse">
<stop stop-color="#FDC6C6"/>
<stop offset="1" stop-color="#FAB2B2"/>
</linearGradient>
<linearGradient id="paint10_linear_48_5342" x1="632.157" y1="332.076" x2="628.563" y2="392.638" gradientUnits="userSpaceOnUse">
<stop stop-color="#FDC6C6"/>
<stop offset="1" stop-color="#FAB2B2"/>
</linearGradient>
<linearGradient id="paint11_linear_48_5342" x1="694.32" y1="305.531" x2="687.302" y2="355.638" gradientUnits="userSpaceOnUse">
<stop stop-color="#FFAFAF"/>
<stop offset="1" stop-color="#F07777"/>
</linearGradient>
<linearGradient id="paint12_linear_48_5342" x1="697.023" y1="299.113" x2="690.355" y2="328.265" gradientUnits="userSpaceOnUse">
<stop stop-color="#FDC6C6"/>
<stop offset="1" stop-color="#FAB2B2"/>
</linearGradient>
<linearGradient id="paint13_linear_48_5342" x1="607.137" y1="516.73" x2="605.568" y2="534.443" gradientUnits="userSpaceOnUse">
<stop stop-color="#FDC6C6"/>
<stop offset="1" stop-color="#FAB2B2"/>
</linearGradient>
<linearGradient id="paint14_linear_48_5342" x1="706.814" y1="382.304" x2="705.278" y2="396.456" gradientUnits="userSpaceOnUse">
<stop stop-color="#FDC6C6"/>
<stop offset="1" stop-color="#FAB2B2"/>
</linearGradient>
<linearGradient id="paint15_linear_48_5342" x1="604.061" y1="332.451" x2="615.985" y2="380.278" gradientUnits="userSpaceOnUse">
<stop stop-color="#9FF6EC"/>
<stop offset="1" stop-color="#7D9DFF"/>
</linearGradient>
<linearGradient id="paint16_linear_48_5342" x1="281.588" y1="397.738" x2="294.11" y2="423.481" gradientUnits="userSpaceOnUse">
<stop stop-color="#FDC6C6"/>
<stop offset="1" stop-color="#A47070"/>
</linearGradient>
<linearGradient id="paint17_linear_48_5342" x1="301.454" y1="292.824" x2="298.823" y2="339.752" gradientUnits="userSpaceOnUse">
<stop stop-color="#FDC6C6"/>
<stop offset="1" stop-color="#A47070"/>
</linearGradient>
<linearGradient id="paint18_linear_48_5342" x1="392.814" y1="344.542" x2="390.929" y2="377.194" gradientUnits="userSpaceOnUse">
<stop stop-color="#FDC6C6"/>
<stop offset="1" stop-color="#A47070"/>
</linearGradient>
<linearGradient id="paint19_linear_48_5342" x1="500.68" y1="395.707" x2="500.68" y2="398.886" gradientUnits="userSpaceOnUse">
<stop stop-color="#9FF6EC"/>
<stop offset="1" stop-color="#7D9DFF"/>
</linearGradient>
<linearGradient id="paint20_linear_48_5342" x1="518.613" y1="347.782" x2="518.613" y2="396.409" gradientUnits="userSpaceOnUse">
<stop stop-color="#9FF6EC"/>
<stop offset="1" stop-color="#7D9DFF"/>
</linearGradient>
<linearGradient id="paint21_linear_48_5342" x1="405.082" y1="379.205" x2="427.761" y2="425.158" gradientUnits="userSpaceOnUse">
<stop stop-color="#FDC6C6"/>
<stop offset="1" stop-color="#FFCCA1"/>
</linearGradient>
<linearGradient id="paint22_linear_48_5342" x1="450.658" y1="498.469" x2="449.43" y2="526.758" gradientUnits="userSpaceOnUse">
<stop stop-color="#FDC6C6"/>
<stop offset="1" stop-color="#FAB2B2"/>
</linearGradient>
<linearGradient id="paint23_linear_48_5342" x1="516.214" y1="497.783" x2="514.955" y2="523.822" gradientUnits="userSpaceOnUse">
<stop stop-color="#FDC6C6"/>
<stop offset="1" stop-color="#FAB2B2"/>
</linearGradient>
<linearGradient id="paint24_linear_48_5342" x1="440.884" y1="303.837" x2="438.54" y2="345.657" gradientUnits="userSpaceOnUse">
<stop stop-color="#FDC6C6"/>
<stop offset="1" stop-color="#FFCCA1"/>
</linearGradient>
<linearGradient id="paint25_linear_48_5342" x1="507.317" y1="353.376" x2="504.323" y2="393.539" gradientUnits="userSpaceOnUse">
<stop stop-color="#FDC6C6"/>
<stop offset="1" stop-color="#FFCCA1"/>
</linearGradient>
</defs>
</svg>
