<svg width="24" height="24" viewBox="0 0 24 24" fill="none" xmlns="http://www.w3.org/2000/svg">
<path fill-rule="evenodd" clip-rule="evenodd" d="M11.9728 20.3682C8.7338 20.3682 5.9668 19.8782 5.9668 17.9162C5.9668 15.9542 8.7158 14.2462 11.9728 14.2462C15.2118 14.2462 17.9788 15.9382 17.9788 17.8992C17.9788 19.8602 15.2298 20.3682 11.9728 20.3682Z" stroke="#2D3436" stroke-width="1.5" stroke-linecap="round" stroke-linejoin="round"/>
<path fill-rule="evenodd" clip-rule="evenodd" d="M11.9731 11.4487C14.0991 11.4487 15.8231 9.7257 15.8231 7.5997C15.8231 5.4737 14.0991 3.7497 11.9731 3.7497C9.84708 3.7497 8.12306 5.4737 8.12306 7.5997C8.11708 9.7177 9.82708 11.4417 11.9461 11.4487H11.9731Z" stroke="#2D3436" stroke-width="1.5" stroke-linecap="round" stroke-linejoin="round"/>
<path d="M18.3633 10.3916C19.6003 10.0606 20.5123 8.9326 20.5123 7.5896C20.5123 6.1886 19.5193 5.0186 18.1973 4.7486" stroke="#2D3436" stroke-width="1.5" stroke-linecap="round" stroke-linejoin="round"/>
<path d="M18.9434 13.5444C20.6974 13.5444 22.1954 14.7334 22.1954 15.7954C22.1954 16.4204 21.6784 17.1014 20.8944 17.2854" stroke="#2D3436" stroke-width="1.5" stroke-linecap="round" stroke-linejoin="round"/>
<path d="M5.58359 10.3916C4.34559 10.0606 3.43359 8.9326 3.43359 7.5896C3.43359 6.1886 4.42759 5.0186 5.74859 4.7486" stroke="#2D3436" stroke-width="1.5" stroke-linecap="round" stroke-linejoin="round"/>
<path d="M5.002 13.5444C3.248 13.5444 1.75 14.7334 1.75 15.7954C1.75 16.4204 2.267 17.1014 3.052 17.2854" stroke="#2D3436" stroke-width="1.5" stroke-linecap="round" stroke-linejoin="round"/>
</svg>
