<svg width="24" height="24" viewBox="0 0 24 24" fill="none" xmlns="http://www.w3.org/2000/svg">
<path d="M6.91602 14.8539L9.90902 10.9649L13.323 13.6449L16.252 9.8649" stroke="#2D3436" stroke-width="1.5" stroke-linecap="round" stroke-linejoin="round"/>
<path fill-rule="evenodd" clip-rule="evenodd" d="M19.6661 2.35001C20.7281 2.35001 21.5881 3.21001 21.5881 4.27201C21.5881 5.33301 20.7281 6.19401 19.6661 6.19401C18.6041 6.19401 17.7441 5.33301 17.7441 4.27201C17.7441 3.21001 18.6041 2.35001 19.6661 2.35001Z" stroke="#2D3436" stroke-width="1.5" stroke-linecap="round" stroke-linejoin="round"/>
<path d="M20.7552 9.26901C20.8882 10.164 20.9492 11.172 20.9492 12.303C20.9492 19.241 18.6372 21.553 11.6992 21.553C4.76222 21.553 2.44922 19.241 2.44922 12.303C2.44922 5.36601 4.76222 3.05301 11.6992 3.05301C12.8092 3.05301 13.8002 3.11201 14.6822 3.24001" stroke="#2D3436" stroke-width="1.5" stroke-linecap="round" stroke-linejoin="round"/>
</svg>
