<svg width="24" height="24" viewBox="0 0 24 24" fill="none" xmlns="http://www.w3.org/2000/svg">
<path fill-rule="evenodd" clip-rule="evenodd" d="M11.8445 21.6619C8.15273 21.6619 5 21.0874 5 18.7866C5 16.4858 8.13273 14.3619 11.8445 14.3619C15.5364 14.3619 18.6891 16.4653 18.6891 18.766C18.6891 21.0659 15.5564 21.6619 11.8445 21.6619Z" stroke="#2D3436" stroke-width="1.5" stroke-linecap="round" stroke-linejoin="round"/>
<path fill-rule="evenodd" clip-rule="evenodd" d="M11.8365 11.1736C14.2593 11.1736 16.2229 9.20999 16.2229 6.78727C16.2229 4.36454 14.2593 2.39999 11.8365 2.39999C9.41382 2.39999 7.44924 4.36454 7.44924 6.78727C7.44109 9.20181 9.39109 11.1654 11.8056 11.1736C11.8165 11.1736 11.8265 11.1736 11.8365 11.1736Z" stroke="#2D3436" stroke-width="1.5" stroke-linecap="round" stroke-linejoin="round"/>
</svg>
